<svg xmlns="http://www.w3.org/2000/svg" width="77.212" height="70.72" viewBox="0 0 77.212 70.72">
  <g id="Group_9" data-name="Group 9" transform="translate(-88.821 -189.214)">
    <g id="Group_3" data-name="Group 3">
      <path id="Path_5" data-name="Path 5" d="M88.821,245.185q.078-.849.122-1.529c.03-.453.055-.98.077-1.578s.038-1.228.048-1.893.016-1.193.016-1.585c.337.009.609.015.816.015s.478-.008.788-.023.611-.022.9-.022a8.078,8.078,0,0,1,.921.049,2.024,2.024,0,0,1,.551.141,1.454,1.454,0,0,1,.7.6,1.594,1.594,0,0,1,.175.442,2.234,2.234,0,0,1,.063.543,2.536,2.536,0,0,1-.069.605,1.907,1.907,0,0,1-.216.531,1.57,1.57,0,0,1-.371.428,3.071,3.071,0,0,1-.629.369l.211.614c.059.17.122.343.189.521l.542,1.412q.036.094.129.363c-.444-.007-.743-.009-.9-.009-.194,0-.512,0-.953.009-.043-.167-.121-.478-.234-.931-.046-.189-.085-.336-.118-.439-.065-.229-.16-.547-.287-.96l-.416-1.365a1.982,1.982,0,0,0,.428.047,1.323,1.323,0,0,0,.535-.1.747.747,0,0,0,.363-.329.944.944,0,0,0,.123-.466.7.7,0,0,0-.092-.365.573.573,0,0,0-.293-.235,1.847,1.847,0,0,0-.616-.076c-.094,0-.192,0-.293.006s-.219.01-.353.013q-.053.989-.092,2.413t-.052,2.792c-.45-.007-.743-.009-.877-.009C89.51,245.176,89.229,245.178,88.821,245.185Z"/>
      <path id="Path_6" data-name="Path 6" d="M94.642,245.185q.232-3.874.233-5.962l0-.623c.472.007.787.009.946.009.073,0,.363,0,.869-.009q-.072,1.086-.117,2.054-.057,1.351-.081,2.526c-.017.783-.025,1.453-.025,2.005l-.827-.009C95.474,245.176,95.143,245.178,94.642,245.185Z"/>
      <path id="Path_7" data-name="Path 7" d="M100.7,241.346c.368.006.72.009,1.054.009q.856,0,1.341-.009c-.035.439-.071,1.064-.107,1.871s-.058,1.416-.066,1.828q-.465.1-.77.146t-.733.082c-.286.026-.54.037-.764.037a5.527,5.527,0,0,1-1.078-.1,3.185,3.185,0,0,1-.948-.344,2.066,2.066,0,0,1-.7-.64,3.149,3.149,0,0,1-.431-.961,4.332,4.332,0,0,1-.151-1.149,4.105,4.105,0,0,1,.408-1.818,3.208,3.208,0,0,1,1.173-1.328,3.619,3.619,0,0,1,1.978-.49,8.55,8.55,0,0,1,1.959.255c0,.469.017.993.052,1.569q-.29-.117-.47-.178a3.945,3.945,0,0,0-.42-.109c-.16-.035-.313-.059-.457-.077a3.784,3.784,0,0,0-.386-.023,2.31,2.31,0,0,0-.84.153,1.747,1.747,0,0,0-.68.466,2.05,2.05,0,0,0-.427.756,3.014,3.014,0,0,0-.141.926,2.294,2.294,0,0,0,.161.885,1.189,1.189,0,0,0,.514.592,1.549,1.549,0,0,0,.783.2,2.876,2.876,0,0,0,.788-.125l.046-1.047c-.176-.01-.279-.016-.312-.016l-.429.006.028-.594c0-.064.007-.156.012-.277S100.7,241.555,100.7,241.346Z"/>
      <path id="Path_8" data-name="Path 8" d="M103.925,245.185l.157-2.634.072-1.92.02-.854q.007-.372.008-.714l0-.463c.424.007.74.009.95.009.165,0,.451,0,.858-.009q-.1,1.384-.124,2.445h2.2q.02-.4.038-1.07c.012-.45.018-.756.018-.92,0-.088,0-.239-.008-.455l.956.009c.1,0,.382,0,.847-.009q-.144,2.481-.184,3.689t-.04,2.9l-.882-.009c-.132,0-.447,0-.946.009q.1-1.147.138-2.673h-2.2l-.068,2.673-.938-.009C104.672,245.176,104.384,245.178,103.925,245.185Z"/>
      <path id="Path_9" data-name="Path 9" d="M111.908,245.185q.2-2.346.241-5.162l-1.72.053.021-.535c.01-.287.018-.6.024-.941q1.146.01,2.673.009l1,0h.97l.525,0-.024.472c-.011.254-.018.463-.022.629s-.007.291-.007.375q-.862-.053-1.424-.053h-.283c-.041.569-.071,1.092-.093,1.575q-.045,1.033-.069,2.009c-.017.651-.025,1.176-.025,1.578-.441-.007-.727-.009-.856-.009S112.411,245.178,111.908,245.185Z"/>
      <path id="Path_10" data-name="Path 10" d="M117.951,245.084q-.052-1.029-.121-1.644a3.868,3.868,0,0,0,.807.333,2.454,2.454,0,0,0,.622.094,1.1,1.1,0,0,0,.56-.123.4.4,0,0,0,.208-.363.56.56,0,0,0-.02-.156.663.663,0,0,0-.076-.17,1.24,1.24,0,0,0-.162-.2l-.762-.791c-.178-.18-.3-.311-.372-.391a2.776,2.776,0,0,1-.334-.459,1.724,1.724,0,0,1-.174-.432,1.879,1.879,0,0,1-.055-.464,1.95,1.95,0,0,1,.087-.577,1.877,1.877,0,0,1,.261-.529,1.569,1.569,0,0,1,.46-.424,1.863,1.863,0,0,1,.614-.244,3.48,3.48,0,0,1,.675-.064,6.579,6.579,0,0,1,1.487.187c.008.223.017.426.028.611s.036.508.077.971a3.409,3.409,0,0,0-.679-.248,2.415,2.415,0,0,0-.529-.07.918.918,0,0,0-.523.14.41.41,0,0,0-.208.348.551.551,0,0,0,.032.188.861.861,0,0,0,.121.214,2.322,2.322,0,0,0,.234.27c.1.1.249.244.457.437l.29.276a3.968,3.968,0,0,1,.279.3,3.1,3.1,0,0,1,.259.353,1.987,1.987,0,0,1,.168.318,1.568,1.568,0,0,1,.086.292,1.649,1.649,0,0,1,.029.316,2.033,2.033,0,0,1-.174.828,1.681,1.681,0,0,1-.493.646,1.89,1.89,0,0,1-.7.354,3.107,3.107,0,0,1-.806.1A7.807,7.807,0,0,1,117.951,245.084Z"/>
      <path id="Path_11" data-name="Path 11" d="M123.8,245.185q.2-2.346.241-5.162l-1.719.053.02-.535c.011-.287.019-.6.024-.941q1.147.01,2.674.009l1,0h.969l.526,0-.025.472c-.01.254-.018.463-.022.629s-.006.291-.006.375q-.864-.053-1.425-.053h-.282c-.041.569-.072,1.092-.094,1.575q-.045,1.033-.069,2.009c-.016.651-.024,1.176-.024,1.578-.441-.007-.727-.009-.856-.009S124.3,245.178,123.8,245.185Z"/>
      <path id="Path_12" data-name="Path 12" d="M127.1,245.185l.335-.695,2.089-4.7.223-.525c.064-.155.156-.377.271-.666.475.007.821.009,1.038.009.38,0,.732,0,1.054-.009l.59,2.011,1.2,3.869.235.705c-.467-.007-.75-.009-.85-.009-.226,0-.558,0-1,.009-.119-.531-.289-1.154-.514-1.872H129.74q-.351.849-.726,1.872c-.5-.007-.809-.009-.922-.009C127.887,245.176,127.557,245.178,127.1,245.185Zm3.127-3.275h1.256c-.312-1.135-.482-1.758-.513-1.875q-.267.709-.452,1.162Z"/>
      <path id="Path_13" data-name="Path 13" d="M134.562,245.185l.082-1.013.157-3.436.044-1.383V238.6c.419.007.788.009,1.109.009.229,0,.551,0,.967-.009l1.724,3.746.238.549q.045-.81.094-2.272t.046-2.023c.331.007.6.009.795.009.092,0,.356,0,.791-.009l-.1,1.437-.182,3.994-.024,1.154c-.351-.007-.678-.009-.983-.009-.253,0-.6,0-1.051.009-.139-.316-.243-.544-.31-.685l-.678-1.375q-.336-.677-.617-1.295c-.124-.26-.252-.547-.384-.857l-.087,2.287-.041,1.925c-.334-.007-.588-.009-.762-.009C135.245,245.176,134.969,245.178,134.562,245.185Z"/>
      <path id="Path_14" data-name="Path 14" d="M141.357,245.185q.09-1.1.122-1.761.049-.984.1-2.547c.025-.8.036-1.369.036-1.713V238.6c.316.009.587.015.816.015s.51-.008.869-.023.694-.022,1.01-.022a5.276,5.276,0,0,1,.948.078,2.009,2.009,0,0,1,.762.319,2.034,2.034,0,0,1,.591.631,3.171,3.171,0,0,1,.364.916,4.623,4.623,0,0,1,.125,1.078,5.6,5.6,0,0,1-.1,1.049,4.424,4.424,0,0,1-.271.908,3.016,3.016,0,0,1-.406.7,2.513,2.513,0,0,1-.531.5,2.018,2.018,0,0,1-.448.24,2.794,2.794,0,0,1-.618.141,7.547,7.547,0,0,1-.991.058l-1.632-.015C141.951,245.17,141.7,245.176,141.357,245.185Zm1.746-1.453a3.868,3.868,0,0,0,.465.026,2.826,2.826,0,0,0,.735-.088,1.122,1.122,0,0,0,.567-.371,1.811,1.811,0,0,0,.361-.731,3.553,3.553,0,0,0,.118-.914,2.406,2.406,0,0,0-.174-.969,1.086,1.086,0,0,0-.463-.546,1.663,1.663,0,0,0-.785-.155c-.2,0-.423.01-.687.03Z"/>
      <path id="Path_15" data-name="Path 15" d="M147.024,245.185l.336-.695,2.089-4.7.223-.525c.064-.155.155-.377.27-.666.475.007.821.009,1.038.009.38,0,.732,0,1.055-.009l.589,2.011,1.2,3.869.235.705c-.467-.007-.749-.009-.85-.009-.226,0-.559,0-1,.009q-.179-.8-.513-1.872h-2.033q-.351.849-.727,1.872c-.5-.007-.808-.009-.921-.009C147.81,245.176,147.48,245.178,147.024,245.185Zm3.128-3.275h1.255c-.312-1.135-.482-1.758-.513-1.875q-.266.709-.452,1.162Z"/>
      <path id="Path_16" data-name="Path 16" d="M154.474,245.185q.076-.849.122-1.529c.029-.453.055-.98.077-1.578s.037-1.228.048-1.893.016-1.193.016-1.585c.337.009.609.015.817.015s.477-.008.787-.023.611-.022.9-.022a8.11,8.11,0,0,1,.922.049,2.034,2.034,0,0,1,.551.141,1.454,1.454,0,0,1,.7.6,1.626,1.626,0,0,1,.176.442,2.285,2.285,0,0,1,.062.543,2.536,2.536,0,0,1-.069.605,1.907,1.907,0,0,1-.216.531,1.574,1.574,0,0,1-.372.428,3.032,3.032,0,0,1-.628.369l.21.614c.06.17.123.343.19.521l.541,1.412q.037.094.129.363c-.443-.007-.742-.009-.9-.009-.195,0-.512,0-.953.009-.043-.167-.121-.478-.235-.931-.046-.189-.085-.336-.117-.439-.064-.229-.16-.547-.287-.96l-.417-1.365a1.991,1.991,0,0,0,.429.047,1.323,1.323,0,0,0,.535-.1.747.747,0,0,0,.363-.329.944.944,0,0,0,.123-.466.693.693,0,0,0-.093-.365.565.565,0,0,0-.293-.235,1.835,1.835,0,0,0-.616-.076c-.093,0-.191,0-.293.006s-.218.01-.352.013q-.053.989-.092,2.413t-.052,2.792c-.45-.007-.743-.009-.878-.009C155.163,245.176,154.881,245.178,154.474,245.185Z"/>
      <path id="Path_17" data-name="Path 17" d="M160.287,245.185q.09-1.1.122-1.761.048-.984.1-2.547c.024-.8.036-1.369.036-1.713V238.6c.315.009.587.015.815.015s.511-.008.869-.023.695-.022,1.01-.022a5.259,5.259,0,0,1,.948.078,2,2,0,0,1,.762.319,2.026,2.026,0,0,1,.592.631,3.2,3.2,0,0,1,.363.916,4.622,4.622,0,0,1,.125,1.078,5.6,5.6,0,0,1-.1,1.049,4.488,4.488,0,0,1-.271.908,3.015,3.015,0,0,1-.406.7,2.514,2.514,0,0,1-.531.5,2,2,0,0,1-.449.24,2.766,2.766,0,0,1-.618.141,7.52,7.52,0,0,1-.99.058l-1.632-.015C160.881,245.17,160.632,245.176,160.287,245.185Zm1.746-1.453a3.868,3.868,0,0,0,.465.026,2.818,2.818,0,0,0,.734-.088,1.125,1.125,0,0,0,.568-.371,1.811,1.811,0,0,0,.361-.731,3.6,3.6,0,0,0,.117-.914,2.389,2.389,0,0,0-.174-.969,1.085,1.085,0,0,0-.462-.546,1.667,1.667,0,0,0-.786-.155c-.194,0-.422.01-.686.03Z"/>
    </g>
    <g id="Group_4" data-name="Group 4">
      <path id="Path_18" data-name="Path 18" d="M102.935,251.211c-.02.119-.043.283-.071.5s-.046.379-.055.494a4.92,4.92,0,0,1-.927.1,2.125,2.125,0,0,1-.731-.123,1.729,1.729,0,0,1-.621-.4,1.605,1.605,0,0,1-.4-.66,2.767,2.767,0,0,1-.122-.849,2.811,2.811,0,0,1,.164-.987,1.9,1.9,0,0,1,.471-.73,1.83,1.83,0,0,1,.672-.418,2.318,2.318,0,0,1,.757-.127,4.349,4.349,0,0,1,.887.115l0,.256c0,.109.008.232.015.365l.017.346a4.229,4.229,0,0,0-.46-.115,1.94,1.94,0,0,0-.326-.029,1.088,1.088,0,0,0-.589.163,1.118,1.118,0,0,0-.412.475,1.57,1.57,0,0,0-.15.692,1.291,1.291,0,0,0,.126.593.955.955,0,0,0,.34.383.977.977,0,0,0,.53.135,2.265,2.265,0,0,0,.375-.035A4.025,4.025,0,0,0,102.935,251.211Z" fill="#f60"/>
      <path id="Path_19" data-name="Path 19" d="M104.811,249.045a1.51,1.51,0,0,1,.579.115,1.284,1.284,0,0,1,.469.332,1.4,1.4,0,0,1,.282.506,2.066,2.066,0,0,1,.091.625,2.284,2.284,0,0,1-.081.615,1.623,1.623,0,0,1-.276.551,1.2,1.2,0,0,1-.493.383,1.638,1.638,0,0,1-1.225.016,1.248,1.248,0,0,1-.474-.329,1.4,1.4,0,0,1-.287-.515,2.051,2.051,0,0,1-.1-.631,2.122,2.122,0,0,1,.093-.631,1.539,1.539,0,0,1,.3-.539,1.346,1.346,0,0,1,.5-.369A1.55,1.55,0,0,1,104.811,249.045Zm-.017.893a.425.425,0,0,0-.276.1.6.6,0,0,0-.183.293,1.336,1.336,0,0,0-.062.42.831.831,0,0,0,.133.51.4.4,0,0,0,.335.178.414.414,0,0,0,.274-.1.609.609,0,0,0,.183-.3,1.419,1.419,0,0,0,.062-.426,1.088,1.088,0,0,0-.049-.339.513.513,0,0,0-.158-.243A.4.4,0,0,0,104.794,249.938Z" fill="#f60"/>
      <path id="Path_20" data-name="Path 20" d="M106.566,252.221q.07-.688.107-1.522c.025-.554.04-1.08.045-1.574.194,0,.362.006.5.006.163,0,.32,0,.47-.006l-.024.412a1.977,1.977,0,0,1,.139-.178.874.874,0,0,1,.144-.127.781.781,0,0,1,.183-.1,1.1,1.1,0,0,1,.212-.063,1.255,1.255,0,0,1,.241-.023,1.221,1.221,0,0,1,.341.047.784.784,0,0,1,.278.135.716.716,0,0,1,.186.214.8.8,0,0,1,.1.278,1.915,1.915,0,0,1,.024.306c0,.077-.007.243-.02.5l-.041,1.1q-.014.325-.013.6c-.163,0-.316-.006-.458-.006-.192,0-.367,0-.526.006.015-.184.031-.457.047-.821s.025-.619.025-.765a.8.8,0,0,0-.106-.479.324.324,0,0,0-.266-.134.384.384,0,0,0-.265.115.732.732,0,0,0-.193.336,3.286,3.286,0,0,0-.1.722c-.018.336-.031.678-.037,1.026-.162,0-.319-.006-.473-.006S106.755,252.217,106.566,252.221Z" fill="#f60"/>
      <path id="Path_21" data-name="Path 21" d="M111.769,251.328c-.028.17-.054.336-.075.5l-.053.369a2.789,2.789,0,0,1-.374.086,1.976,1.976,0,0,1-.261.018,1.4,1.4,0,0,1-.366-.043.548.548,0,0,1-.267-.162.618.618,0,0,1-.146-.268,1.34,1.34,0,0,1-.038-.322c0-.02,0-.055,0-.107s.008-.167.017-.344l.053-1.049h-.378c.009-.141.015-.324.022-.553l.008-.281h.4q.015-.141.036-.61l.416-.107q.113-.027.485-.138-.018.4-.024.855h.552c-.012.42-.019.7-.019.834H111.2l-.029.758c0,.113,0,.185,0,.218a1.037,1.037,0,0,0,.025.243.222.222,0,0,0,.09.138.24.24,0,0,0,.142.043,1.033,1.033,0,0,0,.121-.009A1.837,1.837,0,0,0,111.769,251.328Z" fill="#f60"/>
      <path id="Path_22" data-name="Path 22" d="M112.078,252.221l.075-1.348.024-.771c0-.141,0-.284,0-.428s0-.332,0-.549c.2,0,.351.006.466.006.134,0,.289,0,.463-.006l-.01.342a2.183,2.183,0,0,1,.155-.2.841.841,0,0,1,.139-.118.626.626,0,0,1,.162-.08.693.693,0,0,1,.177-.025.684.684,0,0,1,.194.031c0,.221.006.4.013.545l.016.467a.767.767,0,0,0-.249-.049.557.557,0,0,0-.251.055.528.528,0,0,0-.186.16.817.817,0,0,0-.13.268,2.413,2.413,0,0,0-.068.509c-.013.233-.019.5-.019.8,0,.106,0,.237.01.393-.158,0-.315-.006-.474-.006S112.257,252.217,112.078,252.221Z" fill="#f60"/>
      <path id="Path_23" data-name="Path 23" d="M114.442,250.006c.031-.2.05-.338.058-.414s.021-.194.039-.356a4.669,4.669,0,0,1,1.2-.191,1.646,1.646,0,0,1,.524.08.76.76,0,0,1,.371.26.846.846,0,0,1,.133.512c0,.113-.012.369-.036.765s-.043.916-.056,1.559c-.158,0-.316-.006-.473-.006s-.313,0-.485.006q.033-.334.073-1.377a1.437,1.437,0,0,1-.144.078c-.034.018-.1.041-.182.074s-.155.059-.2.08a.487.487,0,0,0-.128.086.327.327,0,0,0-.077.106.322.322,0,0,0-.023.121.252.252,0,0,0,.065.176.27.27,0,0,0,.209.074.542.542,0,0,0,.109-.012.73.73,0,0,0,.16-.053q-.07.234-.167.682a1.937,1.937,0,0,1-.395.043,1.081,1.081,0,0,1-.5-.1.691.691,0,0,1-.308-.34,1.093,1.093,0,0,1-.108-.466.969.969,0,0,1,.04-.278.994.994,0,0,1,.125-.267.928.928,0,0,1,.2-.223,1.287,1.287,0,0,1,.312-.176,3.856,3.856,0,0,1,.5-.154c.084-.019.162-.041.232-.064a.855.855,0,0,0,.15-.061.261.261,0,0,0,.073-.061.206.206,0,0,0,.04-.072.271.271,0,0,0,.012-.082.214.214,0,0,0-.077-.176.35.35,0,0,0-.228-.062A2.494,2.494,0,0,0,114.442,250.006Z" fill="#f60"/>
      <path id="Path_24" data-name="Path 24" d="M119.286,251.252c-.008.082-.028.23-.059.447l-.062.485a2.592,2.592,0,0,1-.745.115,1.444,1.444,0,0,1-.463-.067,1.016,1.016,0,0,1-.422-.279,1.272,1.272,0,0,1-.279-.488,2.473,2.473,0,0,1-.1-.74,2.571,2.571,0,0,1,.1-.725,1.479,1.479,0,0,1,.3-.574.977.977,0,0,1,.441-.3,1.714,1.714,0,0,1,.536-.078,2.7,2.7,0,0,1,.346.023,2.923,2.923,0,0,1,.432.1l.005.07c0,.073.009.147.011.223s.007.2.016.359l.014.27a1.578,1.578,0,0,0-.613-.15.6.6,0,0,0-.336.091.55.55,0,0,0-.213.268,1.065,1.065,0,0,0-.07.4,1.083,1.083,0,0,0,.062.391.454.454,0,0,0,.2.236.581.581,0,0,0,.3.08,1.183,1.183,0,0,0,.195-.021,1.8,1.8,0,0,0,.2-.047A1.849,1.849,0,0,0,119.286,251.252Z" fill="#f60"/>
      <path id="Path_25" data-name="Path 25" d="M121.536,251.328c-.029.17-.055.336-.076.5l-.053.369a2.755,2.755,0,0,1-.374.086,1.976,1.976,0,0,1-.261.018,1.4,1.4,0,0,1-.366-.043.548.548,0,0,1-.267-.162.606.606,0,0,1-.145-.268,1.291,1.291,0,0,1-.039-.322c0-.02,0-.055,0-.107s.008-.167.017-.344l.053-1.049h-.378c.009-.141.016-.324.022-.553l.008-.281h.4q.015-.141.036-.61l.416-.107q.113-.027.485-.138c-.012.265-.019.55-.024.855h.552c-.012.42-.019.7-.019.834h-.558l-.029.758c0,.113-.005.185-.005.218a1.037,1.037,0,0,0,.025.243.226.226,0,0,0,.09.138.242.242,0,0,0,.142.043,1.033,1.033,0,0,0,.121-.009A1.892,1.892,0,0,0,121.536,251.328Z" fill="#f60"/>
      <path id="Path_26" data-name="Path 26" d="M121.831,252.221q.034-.372.051-.61c.012-.16.022-.365.033-.613s.02-.523.027-.824.015-.652.02-1.049q.315.006.5.006c.115,0,.281,0,.495-.006-.027.381-.047.717-.06,1.006s-.02.6-.023.918c-.006.574-.01.965-.01,1.172-.192,0-.357-.006-.5-.006S122.055,252.217,121.831,252.221Zm.153-3.485c.01-.24.015-.431.015-.57,0-.041,0-.1,0-.164q.292.006.492.006.273,0,.48-.006c-.005.063-.009.115-.01.158l-.015.375c0,.057,0,.125,0,.2-.159,0-.313-.006-.46-.006S122.162,248.732,121.984,248.736Z" fill="#f60"/>
      <path id="Path_27" data-name="Path 27" d="M123.371,252.221q.07-.688.107-1.522c.025-.554.04-1.08.045-1.574.194,0,.361.006.5.006.163,0,.321,0,.471-.006l-.024.412a1.824,1.824,0,0,1,.138-.178.917.917,0,0,1,.144-.127.823.823,0,0,1,.183-.1,1.105,1.105,0,0,1,.213-.063,1.255,1.255,0,0,1,.241-.023,1.214,1.214,0,0,1,.34.047.776.776,0,0,1,.278.135.719.719,0,0,1,.187.214.8.8,0,0,1,.1.278,1.916,1.916,0,0,1,.024.306c0,.077-.006.243-.019.5l-.042,1.1q-.012.325-.012.6c-.163,0-.316-.006-.458-.006-.192,0-.367,0-.526.006.015-.184.03-.457.047-.821s.024-.619.024-.765a.8.8,0,0,0-.106-.479.321.321,0,0,0-.265-.134.386.386,0,0,0-.266.115.741.741,0,0,0-.193.336,3.364,3.364,0,0,0-.1.722c-.018.336-.031.678-.037,1.026-.162,0-.319-.006-.473-.006S123.56,252.217,123.371,252.221Z" fill="#f60"/>
      <path id="Path_28" data-name="Path 28" d="M126.964,252.6a3.2,3.2,0,0,0,.551.187,1.954,1.954,0,0,0,.415.053.734.734,0,0,0,.232-.035.572.572,0,0,0,.168-.086.448.448,0,0,0,.107-.131.687.687,0,0,0,.069-.176,1.293,1.293,0,0,0,.034-.224c.007-.084.013-.2.018-.352-.064.07-.118.127-.164.17a.954.954,0,0,1-.171.123.869.869,0,0,1-.222.09,1,1,0,0,1-.253.033.922.922,0,0,1-.556-.18,1.054,1.054,0,0,1-.368-.5,1.948,1.948,0,0,1-.121-.695,2.278,2.278,0,0,1,.13-.793,1.673,1.673,0,0,1,.374-.6,1.33,1.33,0,0,1,.535-.339,2.122,2.122,0,0,1,.659-.094,4.163,4.163,0,0,1,.478.033,7.389,7.389,0,0,1,.736.137l-.058,1-.049,1.1c0,.078-.006.142-.006.193l-.019.984a2.276,2.276,0,0,1-.036.36,1.092,1.092,0,0,1-.09.287.925.925,0,0,1-.155.234.806.806,0,0,1-.228.172,1.246,1.246,0,0,1-.3.109,1.7,1.7,0,0,1-.4.043c-.078,0-.173,0-.286-.013s-.229-.024-.348-.041-.222-.038-.308-.059-.2-.049-.328-.088l-.017-.4C126.987,253.02,126.979,252.853,126.964,252.6Zm1.663-2.623a1.147,1.147,0,0,0-.268-.035.626.626,0,0,0-.621.417,1.116,1.116,0,0,0-.088.432.965.965,0,0,0,.047.3.444.444,0,0,0,.152.221.377.377,0,0,0,.225.08.4.4,0,0,0,.309-.159.9.9,0,0,0,.187-.431A5.362,5.362,0,0,0,128.627,249.973Z" fill="#f60"/>
      <path id="Path_29" data-name="Path 29" d="M134.181,251.211c-.02.119-.043.283-.071.5s-.046.379-.055.494a4.92,4.92,0,0,1-.927.1,2.125,2.125,0,0,1-.731-.123,1.729,1.729,0,0,1-.621-.4,1.616,1.616,0,0,1-.4-.66,2.768,2.768,0,0,1-.121-.849,2.834,2.834,0,0,1,.163-.987,1.916,1.916,0,0,1,.471-.73,1.826,1.826,0,0,1,.673-.418,2.307,2.307,0,0,1,.756-.127,4.34,4.34,0,0,1,.887.115l.005.256c0,.109.009.232.015.365l.017.346a4.23,4.23,0,0,0-.46-.115,1.931,1.931,0,0,0-.326-.029,1.09,1.09,0,0,0-.589.163,1.118,1.118,0,0,0-.412.475,1.584,1.584,0,0,0-.15.692,1.291,1.291,0,0,0,.126.593.95.95,0,0,0,.341.383.971.971,0,0,0,.529.135,2.246,2.246,0,0,0,.375-.035A3.981,3.981,0,0,0,134.181,251.211Z" fill="#f60"/>
      <path id="Path_30" data-name="Path 30" d="M136.058,249.045a1.513,1.513,0,0,1,.578.115,1.28,1.28,0,0,1,.468.332,1.417,1.417,0,0,1,.284.506,2.1,2.1,0,0,1,.09.625,2.244,2.244,0,0,1-.082.615,1.617,1.617,0,0,1-.274.551,1.212,1.212,0,0,1-.494.383,1.64,1.64,0,0,1-1.226.016,1.26,1.26,0,0,1-.473-.329,1.382,1.382,0,0,1-.286-.515,2.051,2.051,0,0,1-.1-.631,2.091,2.091,0,0,1,.094-.631,1.534,1.534,0,0,1,.294-.539,1.357,1.357,0,0,1,.5-.369A1.558,1.558,0,0,1,136.058,249.045Zm-.018.893a.423.423,0,0,0-.276.1.608.608,0,0,0-.183.293,1.366,1.366,0,0,0-.062.42.831.831,0,0,0,.133.51.4.4,0,0,0,.335.178.412.412,0,0,0,.274-.1.609.609,0,0,0,.183-.3,1.419,1.419,0,0,0,.062-.426,1.119,1.119,0,0,0-.049-.339.514.514,0,0,0-.158-.243A.4.4,0,0,0,136.04,249.938Z" fill="#f60"/>
      <path id="Path_31" data-name="Path 31" d="M137.844,252.221l.067-1.463.039-1.143.005-.49q.267.006.471.006c.153,0,.3,0,.448-.006l-.017.4a2.133,2.133,0,0,1,.127-.185.692.692,0,0,1,.128-.125.764.764,0,0,1,.155-.094.942.942,0,0,1,.179-.057,1.051,1.051,0,0,1,.437,0,.76.76,0,0,1,.179.067.572.572,0,0,1,.131.09.647.647,0,0,1,.1.117,1.613,1.613,0,0,1,.1.189,1.031,1.031,0,0,1,.225-.293.739.739,0,0,1,.271-.148,1.015,1.015,0,0,1,.311-.047,1.041,1.041,0,0,1,.4.076.665.665,0,0,1,.306.262.886.886,0,0,1,.12.484c0,.094,0,.235-.016.422s-.026.51-.044.969-.029.779-.03.963c-.149,0-.292-.006-.432-.006-.169,0-.347,0-.532.006.015-.258.033-.58.05-.967s.025-.654.025-.8a.9.9,0,0,0-.036-.293.265.265,0,0,0-.094-.133.236.236,0,0,0-.125-.035.232.232,0,0,0-.126.034.314.314,0,0,0-.1.113.912.912,0,0,0-.1.254,2.26,2.26,0,0,0-.046.363q-.018.249-.027.656l-.019.813q-.259-.006-.468-.006c-.142,0-.309,0-.5.006.015-.18.033-.483.052-.906s.029-.71.029-.854a.962.962,0,0,0-.028-.271.37.37,0,0,0-.082-.147.18.18,0,0,0-.139-.055.226.226,0,0,0-.165.071.553.553,0,0,0-.12.2,1.428,1.428,0,0,0-.07.359c-.014.153-.027.387-.038.7s-.019.616-.022.9c-.2,0-.354-.006-.475-.006S138.043,252.217,137.844,252.221Z" fill="#f60"/>
      <path id="Path_32" data-name="Path 32" d="M142.393,253.639c.03-.414.056-.826.077-1.241q.056-1.058.076-1.775c.014-.476.021-.951.021-1.42.328-.062.585-.1.771-.125a4.956,4.956,0,0,1,.557-.033,2.144,2.144,0,0,1,.643.092.934.934,0,0,1,.472.32,1.607,1.607,0,0,1,.268.549,2.448,2.448,0,0,1,.089.668,2.567,2.567,0,0,1-.072.617,1.8,1.8,0,0,1-.223.537,1.054,1.054,0,0,1-.345.356.847.847,0,0,1-.435.115,1.129,1.129,0,0,1-.246-.029,1.141,1.141,0,0,1-.241-.082,1.366,1.366,0,0,1-.19-.112,2.151,2.151,0,0,1-.19-.162l-.028.846c-.01.388-.016.681-.016.879-.189,0-.349-.006-.484-.006C142.781,253.633,142.612,253.635,142.393,253.639Zm1.118-3.662c-.014.089-.023.164-.028.222s-.009.135-.014.235-.007.175-.007.234a1.214,1.214,0,0,0,.061.416.612.612,0,0,0,.172.262.356.356,0,0,0,.482,0,.64.64,0,0,0,.177-.285,1.356,1.356,0,0,0,.066-.432.891.891,0,0,0-.138-.522.456.456,0,0,0-.4-.2A1.17,1.17,0,0,0,143.511,249.977Z" fill="#f60"/>
      <path id="Path_33" data-name="Path 33" d="M145.954,250.006c.03-.2.05-.338.058-.414s.021-.194.039-.356a4.682,4.682,0,0,1,1.2-.191,1.646,1.646,0,0,1,.524.08.751.751,0,0,1,.371.26.846.846,0,0,1,.133.512c0,.113-.011.369-.036.765s-.043.916-.056,1.559c-.158,0-.316-.006-.472-.006s-.315,0-.486.006q.033-.334.074-1.377c-.062.037-.11.062-.144.078s-.1.041-.182.074-.156.059-.206.08a.5.5,0,0,0-.127.086.317.317,0,0,0-.078.106.322.322,0,0,0-.023.121.252.252,0,0,0,.065.176.272.272,0,0,0,.209.074.535.535,0,0,0,.109-.012.713.713,0,0,0,.16-.053q-.07.234-.167.682a1.939,1.939,0,0,1-.4.043,1.08,1.08,0,0,1-.5-.1.7.7,0,0,1-.308-.34,1.108,1.108,0,0,1-.108-.466.968.968,0,0,1,.04-.278,1.026,1.026,0,0,1,.125-.267.891.891,0,0,1,.2-.223,1.259,1.259,0,0,1,.311-.176,3.876,3.876,0,0,1,.5-.154c.084-.019.161-.041.232-.064a.837.837,0,0,0,.149-.061.247.247,0,0,0,.073-.061.206.206,0,0,0,.04-.072.271.271,0,0,0,.012-.082.211.211,0,0,0-.077-.176.35.35,0,0,0-.228-.062A2.49,2.49,0,0,0,145.954,250.006Z" fill="#f60"/>
      <path id="Path_34" data-name="Path 34" d="M148.709,252.221q.069-.688.106-1.522c.026-.554.04-1.08.045-1.574.195,0,.362.006.5.006.164,0,.322,0,.472-.006l-.024.412a2.013,2.013,0,0,1,.137-.178.883.883,0,0,1,.145-.127.781.781,0,0,1,.183-.1,1.1,1.1,0,0,1,.212-.063,1.247,1.247,0,0,1,.241-.023,1.221,1.221,0,0,1,.341.047.784.784,0,0,1,.278.135.716.716,0,0,1,.186.214.82.82,0,0,1,.1.278,2.039,2.039,0,0,1,.024.306c0,.077-.007.243-.019.5l-.042,1.1q-.013.325-.013.6c-.163,0-.315-.006-.458-.006-.191,0-.367,0-.525.006.014-.184.03-.457.046-.821s.025-.619.025-.765a.8.8,0,0,0-.106-.479.322.322,0,0,0-.265-.134.388.388,0,0,0-.267.115.74.74,0,0,0-.192.336,3.3,3.3,0,0,0-.1.722q-.027.5-.038,1.026c-.161,0-.319-.006-.473-.006S148.9,252.217,148.709,252.221Z" fill="#f60"/>
      <path id="Path_35" data-name="Path 35" d="M151.906,253.6c-.05-.482-.084-.783-.1-.9a1.183,1.183,0,0,0,.27.125.778.778,0,0,0,.2.033.444.444,0,0,0,.168-.031.348.348,0,0,0,.125-.074.643.643,0,0,0,.1-.135,1.148,1.148,0,0,0,.082-.156,1.335,1.335,0,0,0,.053-.186l-.456-1.726-.391-1.43q.361.006.507.006c.113,0,.268,0,.464-.006.03.154.088.424.171.807s.143.679.18.9c.022.119.042.272.061.455l.051-.242.056-.223c.021-.082.047-.181.079-.3l.158-.551.262-.846c.2,0,.355.006.458.006s.252,0,.485-.006l-.468,1.32-.846,2.455a2.154,2.154,0,0,1-.157.327,1.243,1.243,0,0,1-.153.191.794.794,0,0,1-.167.127,1.062,1.062,0,0,1-.268.109,1.187,1.187,0,0,1-.324.043,1.883,1.883,0,0,1-.2-.013c-.083-.01-.15-.018-.2-.028A1.8,1.8,0,0,1,151.906,253.6Z" fill="#f60"/>
    </g>
    <g id="Group_5" data-name="Group 5">
      <line id="Line_2" data-name="Line 2" x2="8.586" transform="translate(156.752 250.384)" fill="#fff"/>
      <path id="Path_36" data-name="Path 36" d="M165.338,251.091h-8.586a.706.706,0,0,1,0-1.412h8.586a.706.706,0,0,1,0,1.412Z" fill="#1a1818"/>
    </g>
    <g id="Group_6" data-name="Group 6">
      <line id="Line_3" data-name="Line 3" x2="8.273" transform="translate(89.62 250.384)" fill="#fff"/>
      <path id="Path_37" data-name="Path 37" d="M97.892,251.091H89.62a.706.706,0,0,1,0-1.412h8.272a.706.706,0,0,1,0,1.412Z" fill="#1a1818"/>
    </g>
    <path id="Path_38" data-name="Path 38" d="M109.419,222.1c0,3.881,0,7.613.006,11.345,0,.4-.086.515-.39.511-1.657-.016-3.313-.012-4.97,0-.279,0-.408-.06-.407-.491q.017-11.5.015-23c0-.017.025-.032.091-.1.372.383.759.783,1.144,1.186.209.212.111.518.111.777q.009,9.525-.007,19.042c0,.613.086.857.59.8a9.3,9.3,0,0,1,1.789,0c.5.042.687-.1.672-.84-.043-2.286.009-4.574-.029-6.856a1.724,1.724,0,0,1,.576-1.571A9.288,9.288,0,0,0,109.419,222.1Z" fill-rule="evenodd"/>
    <g id="Group_7" data-name="Group 7">
      <path id="Path_39" data-name="Path 39" d="M115.256,224.008c0,1.24,0,1.24-1.2,1.237s-1.2,0-1.2-1.244,0-1.242,1.21-1.243S115.256,222.757,115.256,224.008Z" fill-rule="evenodd"/>
      <path id="Path_40" data-name="Path 40" d="M117.442,225.245c-1.19,0-1.19,0-1.192-1.246s0-1.242,1.2-1.241c1.226,0,1.226,0,1.228,1.285C118.676,225.244,118.676,225.244,117.442,225.245Z" fill-rule="evenodd"/>
      <path id="Path_41" data-name="Path 41" d="M118.673,227.4c0,1.243,0,1.243-1.2,1.243-1.224,0-1.224,0-1.223-1.232s0-1.24,1.205-1.24S118.674,226.173,118.673,227.4Z" fill-rule="evenodd"/>
      <path id="Path_42" data-name="Path 42" d="M115.254,227.4c0,1.251,0,1.251-1.183,1.251-1.218,0-1.218,0-1.22-1.293,0-1.179,0-1.179,1.117-1.179h.07C115.251,226.174,115.251,226.174,115.254,227.4Z" fill-rule="evenodd"/>
    </g>
    <path id="Path_43" data-name="Path 43" d="M159.134,189.228c-6.526,0-14.49-.04-21.271.017-.278-.006-.633-.008-1.084-.01-.208,0-.406.01-.6.025a5.914,5.914,0,0,0-4.944,3.423c-.041.075-.062.124-.062.124a15.907,15.907,0,0,1,3.3,5.9,19.224,19.224,0,0,1,.479,2.288l.066.509c.14-.537.194-.765.258-.99.663-2.322,1.46-3.454,3.629-3.424,6.549.1,13.1.039,19.652.039h.977v-7.834A3.109,3.109,0,0,0,159.134,189.228Z" fill="#f60"/>
    <path id="Path_44" data-name="Path 44" d="M131.275,214.519l0,0c-.008.013-.021.029-.031.046A.4.4,0,0,1,131.275,214.519Z"/>
    <path id="Path_45" data-name="Path 45" d="M131.241,214.563v0l0,0Z" fill="#a50718"/>
    <path id="Path_46" data-name="Path 46" d="M135.336,232.39c-2.291-4.5-5.369-9.094-7.554-13.617-.34-.7-.266-.984.285-1.333h0l.131-.087h0a17.814,17.814,0,0,0,1.524-1.128,11.194,11.194,0,0,0,1.519-1.662h0l0-.005c.01-.015.022-.03.03-.041-.166-.116-.326-.233-.482-.356-3.277-2.591-3.43-7.184-3.43-7.184l-.04.13c-.178.447-.9,1.692-.9,1.692-.044.063-.092.126-.138.189a.1.1,0,0,0-.017.021,6.355,6.355,0,0,1-1.085,1.112l-.005,0c-.065.053-.13.1-.194.151l-.018.012c-.062.044-.125.09-.189.132-.007.006-.016.011-.024.018-.062.04-.123.079-.186.117-.011.005-.02.012-.03.017l-.2.116-.018.007a.114.114,0,0,1-.022.012c-.1.057-.207.109-.314.158a5.569,5.569,0,0,1-1.9.507c-1.612.134-3.117.072-4.751.084-.285,0-1.184-.077-1.446.216a1.331,1.331,0,0,0-.1.1c-1.935,2.01-3.889,3.991-5.839,5.978-.116.118-.222.374-.376.283-.19-.111-.091-.4-.092-.614-.01-1.343-.029-2.691,0-4.036a1.662,1.662,0,0,0-.481-1.338c-2.721-2.792-5.419-5.617-8.128-8.428-.29-.3-.593-.589-.981-.969v23.009c0,1.956-.009,3.911.006,5.868,0,.456-.086.632-.45.614q-1.041-.05-2.082,0c-.376.018-.489-.147-.489-.648q.015-18.476,0-36.954c0-.54.127-.684.524-.678,1.889.025,3.777.034,5.666-.006.485-.009.606.176.6.8-.024,3.3-.013,6.6-.011,9.906,0,.269-.068.574.133.782.386.4.778.8,1.194,1.227a1.663,1.663,0,0,0,.059-.279c0-4.57-.006-9.142.01-13.717,0-.515-.164-.56-.481-.558-2.871.013-5.744.018-8.614,0-.381,0-.489.136-.489.637q.014,20.343,0,40.686c0,.506.114.642.493.637,1.561-.028,3.122-.04,4.683.005.516.013.672-.152.67-.868q-.031-12.8-.011-25.6a2.46,2.46,0,0,1,.085-.994c2.183,2.272,4.324,4.508,6.472,6.732a1.053,1.053,0,0,1,.209.815q0,3.616,0,7.237c0,.183-.08.4.1.577.106-.091.223-.175.325-.281,2.292-2.348,4.589-4.69,6.868-7.054h0l0-.006.236-.243a1.039,1.039,0,0,1,.872-.4c.118.055.311.238.585.764,1.343,2.643,2.49,5.4,3.775,8.075,1.509,3.146,3,6.3,4.511,9.449.4.828.863,1.617,1.739,1.635,1.964.048,6.821-.023,8.965-.023C135.749,233.159,135.538,232.785,135.336,232.39Z" fill="#f60"/>
    <path id="Path_47" data-name="Path 47" d="M149.183,207.191c-3.4.162-6.8.043-10.206.043a6.159,6.159,0,0,1-2.148-.375,4.669,4.669,0,0,1-2.461-3.444c-.046-.337-.1-.738-.178-1.181a23.833,23.833,0,0,0-1.208-4.688c-.11-.263-.225-.522-.348-.778-.1-.193-.2-.379-.307-.551a12.809,12.809,0,0,0-8.811-6.763,11.051,11.051,0,0,0-1.754-.154q-1.6-.008-3.2-.011c-4.179-.01-7.26,0-11.439.008l-.757,0H106s-.355.018-.061.634c.871,1.788,1.7,3.721,2.53,5.553a2.319,2.319,0,0,0,2.364,1.608h0l9.869-.03q.593,0,1.2.011a6.03,6.03,0,0,1,5.544,3.846,5.811,5.811,0,0,1,.628,2.79c0,.047,0,.092,0,.138.006.254,0,.507-.015.754,0,.226,0,.449,0,.665h0s0,.043,0,.125v.074a14.714,14.714,0,0,0,.131,1.633,11.548,11.548,0,0,0,.5,2.035,8.052,8.052,0,0,0,3.386,4.629,7.575,7.575,0,0,0,3.952,1h11.647s3.119-.192,4.308,2.333a8.236,8.236,0,0,1,.536,4.649c-.552,2.5-2.274,4.424-4.165,4.424-4.546,0-7.947,0-12.369,0l-2.493-.006.171.292c1.507,2.65,2.487,4.482,3.859,6.937a1.009,1.009,0,0,0,.85.393c4.29.025,8.523.005,12.817.022a5.7,5.7,0,0,0,3.938-1.7,14.408,14.408,0,0,0,3.968-6.945C161.715,215.677,156.2,206.853,149.183,207.191Z"/>
    <g id="Group_8" data-name="Group 8">
      <path id="Path_48" data-name="Path 48" d="M89.027,258.82c.025-.267.045-.51.06-.722s.027-.465.037-.748.019-.582.024-.9.008-.564.008-.75c.164,0,.3.008.4.008s.233,0,.384-.012.3-.009.44-.009a3.779,3.779,0,0,1,.45.023.957.957,0,0,1,.268.066.77.77,0,0,1,.2.121.712.712,0,0,1,.138.163.7.7,0,0,1,.085.209.99.99,0,0,1,.031.255,1.16,1.16,0,0,1-.034.288.932.932,0,0,1-.1.251.8.8,0,0,1-.182.2,1.523,1.523,0,0,1-.306.173l.1.291q.043.121.093.246l.264.67c.011.028.032.086.063.17l-.437,0-.465,0c-.021-.078-.059-.226-.114-.439-.022-.09-.041-.16-.057-.209-.032-.107-.078-.26-.14-.455l-.2-.645a1.075,1.075,0,0,0,.209.022.629.629,0,0,0,.26-.051.355.355,0,0,0,.178-.154.445.445,0,0,0,.06-.221.326.326,0,0,0-.046-.174.258.258,0,0,0-.142-.109.872.872,0,0,0-.3-.037c-.045,0-.093,0-.142,0l-.172.005c-.018.311-.032.692-.045,1.141s-.022.891-.026,1.322l-.427,0Z"/>
      <path id="Path_49" data-name="Path 49" d="M91.822,258.82c.018-.185.032-.338.041-.459s.018-.273.027-.461.016-.394.022-.621.012-.49.016-.791c.171,0,.307.006.41.006s.227,0,.4-.006c-.023.289-.039.541-.049.76s-.016.447-.019.692c0,.431-.008.726-.008.88-.156,0-.291,0-.4,0S92,258.818,91.822,258.82Zm.124-2.623q.012-.271.012-.429c0-.032,0-.073,0-.123l.4,0q.222,0,.39,0c0,.046-.007.085-.008.117l-.012.283c0,.043,0,.094,0,.152-.13,0-.255-.006-.374-.006S92.091,256.193,91.946,256.2Z"/>
      <path id="Path_50" data-name="Path 50" d="M93.25,259.1a2.435,2.435,0,0,0,.447.141,1.607,1.607,0,0,0,.337.041.658.658,0,0,0,.189-.027.447.447,0,0,0,.135-.065.329.329,0,0,0,.088-.1.493.493,0,0,0,.056-.133.956.956,0,0,0,.028-.17c.005-.065.01-.152.013-.264a1.621,1.621,0,0,1-.132.127.78.78,0,0,1-.139.092.671.671,0,0,1-.18.068.77.77,0,0,1-.206.026.79.79,0,0,1-.451-.135.809.809,0,0,1-.3-.377,1.371,1.371,0,0,1-.1-.523,1.6,1.6,0,0,1,.107-.6,1.2,1.2,0,0,1,.3-.453,1.1,1.1,0,0,1,.434-.256,1.877,1.877,0,0,1,.536-.07,3.817,3.817,0,0,1,.388.023q.217.024.6.1l-.046.753-.041.829c0,.058,0,.107,0,.144l-.015.742a1.616,1.616,0,0,1-.03.27.819.819,0,0,1-.073.219.723.723,0,0,1-.126.176.647.647,0,0,1-.185.128,1.108,1.108,0,0,1-.246.082,1.518,1.518,0,0,1-.321.034c-.063,0-.14,0-.232-.012s-.187-.016-.283-.029-.18-.03-.25-.045-.159-.038-.267-.065l-.013-.3C93.268,259.424,93.262,259.3,93.25,259.1Zm1.351-1.974a.906.906,0,0,0-.218-.027.571.571,0,0,0-.306.078.5.5,0,0,0-.2.236.785.785,0,0,0-.071.326.683.683,0,0,0,.037.229.341.341,0,0,0,.124.166.31.31,0,0,0,.183.06.331.331,0,0,0,.251-.119.658.658,0,0,0,.152-.324A3.816,3.816,0,0,0,94.6,257.129Z"/>
      <path id="Path_51" data-name="Path 51" d="M95.739,258.82q.032-.339.046-.558c.018-.307.037-.662.057-1.067.012-.269.021-.525.027-.773s.008-.487.008-.719c.167,0,.3,0,.408,0,.142,0,.275,0,.4,0l-.041.553c-.006.092-.017.277-.031.554a1.456,1.456,0,0,1,.107-.142.617.617,0,0,1,.091-.086.7.7,0,0,1,.1-.068.612.612,0,0,1,.12-.047.886.886,0,0,1,.149-.033,1.166,1.166,0,0,1,.168-.012,1.2,1.2,0,0,1,.324.045.592.592,0,0,1,.417.392,1.058,1.058,0,0,1,.039.295c0,.041,0,.1,0,.162s-.006.155-.013.258l-.043.77c0,.1-.008.176-.008.238s0,.143,0,.238c-.137,0-.268,0-.393,0s-.283,0-.427,0c.022-.2.042-.435.058-.7s.026-.461.026-.59a.458.458,0,0,0-.078-.3.269.269,0,0,0-.206-.085.374.374,0,0,0-.2.054.4.4,0,0,0-.138.149.8.8,0,0,0-.085.244,4.313,4.313,0,0,0-.061.572c-.008.141-.015.36-.023.658-.133,0-.257,0-.372,0S95.9,258.818,95.739,258.82Z"/>
      <path id="Path_52" data-name="Path 52" d="M99.961,258.148c-.023.129-.044.254-.061.375l-.043.28a2.933,2.933,0,0,1-.3.064,1.968,1.968,0,0,1-.212.014,1.275,1.275,0,0,1-.3-.033.479.479,0,0,1-.216-.121.459.459,0,0,1-.118-.2.9.9,0,0,1-.032-.242c0-.013,0-.041,0-.08s.006-.125.014-.26l.043-.791h-.307c.006-.1.012-.242.018-.414l.006-.213h.326c.008-.07.018-.222.03-.458l.336-.081c.063-.013.194-.049.4-.1q-.014.3-.02.644h.449c-.011.317-.015.526-.015.627H99.5l-.024.573c0,.084,0,.14,0,.164a.725.725,0,0,0,.02.183.176.176,0,0,0,.073.1.223.223,0,0,0,.116.033.862.862,0,0,0,.1-.008A1.651,1.651,0,0,0,99.961,258.148Z"/>
      <path id="Path_53" data-name="Path 53" d="M101.222,258.773c-.017-.324-.037-.583-.059-.779a1.866,1.866,0,0,0,.394.158,1.214,1.214,0,0,0,.3.045.55.55,0,0,0,.274-.058.186.186,0,0,0,.1-.172.294.294,0,0,0-.009-.074.3.3,0,0,0-.038-.08.616.616,0,0,0-.079-.1l-.371-.373c-.087-.086-.147-.149-.181-.186a1.388,1.388,0,0,1-.163-.216.824.824,0,0,1-.085-.206.861.861,0,0,1-.027-.22.891.891,0,0,1,.043-.274.868.868,0,0,1,.127-.25.75.75,0,0,1,.224-.2.9.9,0,0,1,.3-.117,1.764,1.764,0,0,1,.328-.029,3.36,3.36,0,0,1,.725.087c0,.106.009.2.014.29s.018.242.037.46a1.637,1.637,0,0,0-.331-.117,1.166,1.166,0,0,0-.258-.033.452.452,0,0,0-.255.066.192.192,0,0,0-.1.165.235.235,0,0,0,.016.087.357.357,0,0,0,.059.1,1.2,1.2,0,0,0,.114.129c.047.047.121.115.222.207l.142.129c.042.041.087.088.136.144a1.548,1.548,0,0,1,.126.166.894.894,0,0,1,.082.153.73.73,0,0,1,.042.136.807.807,0,0,1,.014.151.919.919,0,0,1-.085.39.785.785,0,0,1-.24.307.919.919,0,0,1-.342.168,1.612,1.612,0,0,1-.392.049A3.926,3.926,0,0,1,101.222,258.773Z"/>
      <path id="Path_54" data-name="Path 54" d="M104.916,258.148c-.023.129-.043.254-.061.375l-.043.28a2.932,2.932,0,0,1-.3.064,1.968,1.968,0,0,1-.212.014,1.275,1.275,0,0,1-.3-.033.479.479,0,0,1-.216-.121.459.459,0,0,1-.118-.2.9.9,0,0,1-.032-.242c0-.013,0-.041,0-.08s.006-.125.014-.26l.043-.791h-.307c.007-.1.012-.242.018-.414l.006-.213h.326c.008-.07.018-.222.03-.458l.337-.081c.062-.013.193-.049.394-.1q-.014.3-.02.644h.449q-.015.475-.015.627h-.453l-.024.573c0,.084,0,.14,0,.164a.724.724,0,0,0,.02.183.176.176,0,0,0,.073.1.223.223,0,0,0,.116.033.862.862,0,0,0,.1-.008A1.591,1.591,0,0,0,104.916,258.148Z"/>
      <path id="Path_55" data-name="Path 55" d="M105.353,257.154q.038-.228.048-.312c.006-.057.017-.147.031-.268a4.055,4.055,0,0,1,.975-.144,1.391,1.391,0,0,1,.425.06.617.617,0,0,1,.3.2.607.607,0,0,1,.109.387c0,.084-.011.276-.03.575s-.035.689-.045,1.173c-.129,0-.257,0-.384,0s-.255,0-.394,0c.017-.166.037-.511.059-1.037-.05.027-.089.049-.117.061l-.148.054c-.071.024-.126.045-.166.061a.424.424,0,0,0-.1.064.236.236,0,0,0-.063.08.217.217,0,0,0-.019.092.188.188,0,0,0,.053.133.236.236,0,0,0,.17.055.719.719,0,0,0,.088-.008.823.823,0,0,0,.13-.041c-.038.117-.083.289-.136.514a1.768,1.768,0,0,1-.321.033.932.932,0,0,1-.406-.08.536.536,0,0,1-.25-.254.774.774,0,0,1-.088-.352.688.688,0,0,1,.032-.211.781.781,0,0,1,.263-.369,1.11,1.11,0,0,1,.253-.131,2.78,2.78,0,0,1,.407-.115c.068-.016.131-.033.188-.051a.664.664,0,0,0,.122-.045.2.2,0,0,0,.059-.045.171.171,0,0,0,.032-.054.178.178,0,0,0,.01-.061.16.16,0,0,0-.063-.135.31.31,0,0,0-.185-.046A2.148,2.148,0,0,0,105.353,257.154Z"/>
      <path id="Path_56" data-name="Path 56" d="M107.591,258.82q.057-.518.087-1.144c.02-.418.032-.815.036-1.188.158,0,.294.006.409.006.132,0,.26,0,.382-.006l-.02.311c.044-.055.081-.1.113-.133a.7.7,0,0,1,.117-.1.74.74,0,0,1,.148-.076,1.148,1.148,0,0,1,.173-.047,1.033,1.033,0,0,1,.195-.017,1.068,1.068,0,0,1,.277.035.663.663,0,0,1,.226.1.545.545,0,0,1,.151.162.56.56,0,0,1,.081.21,1.322,1.322,0,0,1,.02.23c0,.057-.006.182-.016.373l-.034.828c-.007.162-.01.313-.01.451-.133,0-.257,0-.372,0-.156,0-.3,0-.427,0,.012-.138.025-.343.038-.617s.02-.465.02-.576a.564.564,0,0,0-.086-.359.269.269,0,0,0-.216-.1.325.325,0,0,0-.216.088.558.558,0,0,0-.156.252,2.344,2.344,0,0,0-.078.545c-.016.252-.026.51-.031.771-.131,0-.259,0-.384,0S107.745,258.818,107.591,258.82Z"/>
      <path id="Path_57" data-name="Path 57" d="M112.57,258.82c-.141,0-.258,0-.351,0s-.232,0-.382,0l.011-.289c-.051.057-.1.1-.134.141a.773.773,0,0,1-.146.1.845.845,0,0,1-.407.106.812.812,0,0,1-.353-.08.8.8,0,0,1-.281-.229.993.993,0,0,1-.173-.349,1.534,1.534,0,0,1-.057-.418,1.793,1.793,0,0,1,.1-.6,1.254,1.254,0,0,1,.273-.463.941.941,0,0,1,.381-.238,1.441,1.441,0,0,1,.458-.07,2.6,2.6,0,0,1,.382.033c.011-.18.018-.434.021-.76.162,0,.293,0,.4,0,.132,0,.266,0,.4,0-.038.453-.071,1-.1,1.656S112.57,258.5,112.57,258.82Zm-.7-1.761a.716.716,0,0,0-.2-.03.6.6,0,0,0-.326.086.554.554,0,0,0-.206.268.964.964,0,0,0-.072.357.682.682,0,0,0,.04.238.365.365,0,0,0,.124.169.313.313,0,0,0,.187.062.32.32,0,0,0,.2-.07.523.523,0,0,0,.146-.209,1.2,1.2,0,0,0,.076-.325C111.853,257.478,111.863,257.3,111.868,257.059Z"/>
      <path id="Path_58" data-name="Path 58" d="M113.2,257.154c.025-.152.04-.256.047-.312s.017-.147.031-.268a4.062,4.062,0,0,1,.975-.144,1.4,1.4,0,0,1,.426.06.614.614,0,0,1,.3.2.6.6,0,0,1,.109.387q0,.126-.03.575c-.019.3-.035.689-.045,1.173-.129,0-.257,0-.384,0s-.255,0-.394,0c.017-.166.037-.511.059-1.037-.049.027-.088.049-.117.061l-.148.054c-.071.024-.126.045-.166.061a.424.424,0,0,0-.1.064.235.235,0,0,0-.063.08.233.233,0,0,0-.019.092.188.188,0,0,0,.053.133.236.236,0,0,0,.17.055.719.719,0,0,0,.088-.008.862.862,0,0,0,.131-.041c-.038.117-.084.289-.137.514a1.748,1.748,0,0,1-.32.033.936.936,0,0,1-.407-.08.536.536,0,0,1-.25-.254.774.774,0,0,1-.088-.352.689.689,0,0,1,.033-.211.744.744,0,0,1,.1-.2.8.8,0,0,1,.161-.168,1.11,1.11,0,0,1,.253-.131,2.78,2.78,0,0,1,.407-.115c.068-.016.131-.033.188-.051a.636.636,0,0,0,.122-.045.2.2,0,0,0,.059-.045.171.171,0,0,0,.032-.054.178.178,0,0,0,.01-.061.16.16,0,0,0-.063-.135.308.308,0,0,0-.185-.046A2.148,2.148,0,0,0,113.2,257.154Z"/>
      <path id="Path_59" data-name="Path 59" d="M115.453,258.82l.061-1.013.019-.582c0-.106,0-.213,0-.323s0-.248,0-.414q.239.006.378.006c.11,0,.235,0,.377-.006l-.009.258c.052-.066.094-.115.126-.148a.678.678,0,0,1,.113-.09.556.556,0,0,1,.132-.059.488.488,0,0,1,.143-.019.628.628,0,0,1,.158.023c0,.166.005.3.01.41l.014.352a.648.648,0,0,0-.2-.037.459.459,0,0,0-.2.041.43.43,0,0,0-.151.121.627.627,0,0,0-.105.2,1.684,1.684,0,0,0-.055.385c-.011.176-.016.375-.016.6,0,.08,0,.178.008.3-.127,0-.256,0-.385,0S115.6,258.818,115.453,258.82Z"/>
      <path id="Path_60" data-name="Path 60" d="M119.406,258.82c-.141,0-.258,0-.351,0s-.232,0-.382,0l.011-.289c-.051.057-.1.1-.134.141a.773.773,0,0,1-.146.1.845.845,0,0,1-.407.106.812.812,0,0,1-.353-.08.8.8,0,0,1-.281-.229.993.993,0,0,1-.173-.349,1.533,1.533,0,0,1-.057-.418,1.793,1.793,0,0,1,.1-.6,1.254,1.254,0,0,1,.273-.463.934.934,0,0,1,.381-.238,1.441,1.441,0,0,1,.458-.07,2.6,2.6,0,0,1,.382.033c.011-.18.017-.434.021-.76.162,0,.293,0,.4,0,.132,0,.266,0,.4,0-.038.453-.071,1-.1,1.656S119.406,258.5,119.406,258.82Zm-.7-1.761a.716.716,0,0,0-.2-.03.6.6,0,0,0-.326.086.554.554,0,0,0-.206.268.964.964,0,0,0-.072.357.66.66,0,0,0,.04.238.365.365,0,0,0,.124.169.309.309,0,0,0,.187.062.32.32,0,0,0,.2-.07.523.523,0,0,0,.146-.209,1.2,1.2,0,0,0,.076-.325C118.689,257.478,118.7,257.3,118.7,257.059Z"/>
      <path id="Path_61" data-name="Path 61" d="M119.62,259.406l.238-.793.107-.361c.182,0,.316,0,.4,0,.067,0,.193,0,.38,0-.066.129-.134.26-.2.391s-.138.263-.2.4-.129.254-.186.361l-.26,0C119.82,259.4,119.729,259.4,119.62,259.406Z"/>
      <path id="Path_62" data-name="Path 62" d="M122.078,258.82q.112-1.833.113-2.822l0-.295c.23,0,.384,0,.461,0,.036,0,.177,0,.424,0-.023.342-.042.668-.057.973q-.028.641-.04,1.2c-.007.371-.011.688-.011.949l-.4,0Z"/>
      <path id="Path_63" data-name="Path 63" d="M123.409,258.777c0-.066-.011-.136-.016-.211s-.014-.175-.025-.3l-.016-.164c.127.056.236.1.328.129a.9.9,0,0,0,.254.041.484.484,0,0,0,.156-.02.168.168,0,0,0,.087-.06.142.142,0,0,0,.028-.081.135.135,0,0,0-.021-.07.456.456,0,0,0-.093-.1c-.108-.092-.2-.174-.284-.25a1.356,1.356,0,0,1-.184-.2.688.688,0,0,1-.1-.187.666.666,0,0,1-.032-.209.712.712,0,0,1,.093-.354.543.543,0,0,1,.276-.238,1.184,1.184,0,0,1,.444-.074,3.8,3.8,0,0,1,.7.082l.032.638a1.113,1.113,0,0,0-.459-.109.538.538,0,0,0-.226.037.123.123,0,0,0-.07.115.144.144,0,0,0,.037.1.408.408,0,0,0,.051.051l.148.121c.08.064.141.117.186.158a1.086,1.086,0,0,1,.168.186.737.737,0,0,1,.089.183.691.691,0,0,1,.03.2.642.642,0,0,1-.068.3.594.594,0,0,1-.2.229.943.943,0,0,1-.3.127,1.551,1.551,0,0,1-.329.035,2.145,2.145,0,0,1-.286-.024A3.4,3.4,0,0,1,123.409,258.777Z"/>
      <path id="Path_64" data-name="Path 64" d="M126.217,259.865c-.04-.365-.068-.59-.082-.68a.845.845,0,0,0,.219.094.618.618,0,0,0,.165.026.391.391,0,0,0,.137-.024.283.283,0,0,0,.1-.054.563.563,0,0,0,.082-.1.975.975,0,0,0,.066-.117.857.857,0,0,0,.044-.141l-.371-1.3-.317-1.078c.195,0,.333.006.412.006s.217,0,.376-.006c.025.117.072.321.139.608s.117.513.147.677c.017.09.034.2.049.342l.042-.183c.012-.049.028-.1.045-.166s.038-.137.065-.225l.128-.414.212-.639q.246.006.372.006c.074,0,.205,0,.394-.006l-.38,1-.687,1.848a1.557,1.557,0,0,1-.128.246.774.774,0,0,1-.124.145.617.617,0,0,1-.136.1.919.919,0,0,1-.217.082,1.074,1.074,0,0,1-.264.034,1.432,1.432,0,0,1-.162-.012c-.067-.006-.121-.014-.162-.02S126.286,259.883,126.217,259.865Z"/>
      <path id="Path_65" data-name="Path 65" d="M129.937,256.43a1.309,1.309,0,0,1,.469.086,1.053,1.053,0,0,1,.383.25,1.012,1.012,0,0,1,.229.382,1.482,1.482,0,0,1,.074.469,1.584,1.584,0,0,1-.067.465,1.218,1.218,0,0,1-.222.414.975.975,0,0,1-.4.289,1.408,1.408,0,0,1-.513.1,1.366,1.366,0,0,1-.481-.086.993.993,0,0,1-.386-.246,1.059,1.059,0,0,1-.232-.389,1.438,1.438,0,0,1-.078-.475,1.494,1.494,0,0,1,.076-.474,1.133,1.133,0,0,1,.24-.406,1.089,1.089,0,0,1,.408-.278A1.352,1.352,0,0,1,129.937,256.43Zm-.013.672a.37.37,0,0,0-.225.074.458.458,0,0,0-.148.221.978.978,0,0,0-.051.316.591.591,0,0,0,.109.385.334.334,0,0,0,.272.134.344.344,0,0,0,.222-.078.462.462,0,0,0,.149-.224,1.022,1.022,0,0,0,.049-.323.763.763,0,0,0-.039-.255.367.367,0,0,0-.129-.182A.324.324,0,0,0,129.924,257.1Z"/>
      <path id="Path_66" data-name="Path 66" d="M133.588,258.82c-.151,0-.276,0-.375,0-.123,0-.247,0-.372,0l0-.312a1.624,1.624,0,0,1-.12.154.646.646,0,0,1-.108.09.758.758,0,0,1-.13.068.852.852,0,0,1-.166.043,1,1,0,0,1-.189.018,1.047,1.047,0,0,1-.3-.043.6.6,0,0,1-.244-.143.515.515,0,0,1-.144-.228,1.061,1.061,0,0,1-.038-.3c0-.027,0-.07.006-.127l.031-.52q.014-.283.026-.632c.005-.141.008-.276.008-.4.163,0,.3.006.416.006s.242,0,.381-.006l-.061.871q-.014.2-.015.27c0,.049,0,.082,0,.1a.471.471,0,0,0,.084.324.274.274,0,0,0,.2.084.256.256,0,0,0,.1-.016.322.322,0,0,0,.091-.045.3.3,0,0,0,.069-.068.483.483,0,0,0,.06-.106.784.784,0,0,0,.047-.162,2.922,2.922,0,0,0,.034-.306c0-.09.012-.244.02-.465l.016-.479c.169,0,.309.006.417.006s.245,0,.368-.006c-.03.387-.053.756-.07,1.1S133.6,258.35,133.588,258.82Z"/>
      <path id="Path_67" data-name="Path 67" d="M134.029,258.82l.062-1.013.019-.582c0-.106,0-.213,0-.323s0-.248,0-.414q.24.006.378.006c.11,0,.235,0,.376-.006l-.008.258c.052-.066.094-.115.126-.148a.722.722,0,0,1,.113-.09.556.556,0,0,1,.132-.059.486.486,0,0,1,.144-.019.627.627,0,0,1,.157.023c0,.166.005.3.01.41l.014.352a.652.652,0,0,0-.2-.037.459.459,0,0,0-.2.041.425.425,0,0,0-.152.121.626.626,0,0,0-.105.2,1.684,1.684,0,0,0-.055.385c-.011.176-.016.375-.016.6,0,.08,0,.178.008.3-.128,0-.256,0-.385,0S134.176,258.818,134.029,258.82Z"/>
      <path id="Path_68" data-name="Path 68" d="M136.793,258.82c.024-.267.044-.51.059-.722s.027-.465.038-.748.018-.582.023-.9.008-.564.008-.75c.164,0,.3.008.4.008s.234,0,.385-.012.3-.009.441-.009a3.773,3.773,0,0,1,.449.023.957.957,0,0,1,.268.066.77.77,0,0,1,.2.121.712.712,0,0,1,.138.163.7.7,0,0,1,.086.209.991.991,0,0,1,.03.255,1.16,1.16,0,0,1-.033.288.935.935,0,0,1-.1.251.785.785,0,0,1-.182.2,1.494,1.494,0,0,1-.306.173l.1.291c.028.081.059.163.092.246l.264.67c.012.028.033.086.063.17l-.437,0-.465,0c-.02-.078-.058-.226-.114-.439-.022-.09-.041-.16-.057-.209-.032-.107-.079-.26-.14-.455l-.2-.645a1.075,1.075,0,0,0,.209.022.637.637,0,0,0,.261-.051.357.357,0,0,0,.177-.154.445.445,0,0,0,.06-.221.334.334,0,0,0-.045-.174.264.264,0,0,0-.143-.109.872.872,0,0,0-.3-.037c-.046,0-.094,0-.143,0l-.173.005c-.017.311-.031.692-.044,1.141s-.021.891-.025,1.322l-.428,0Z"/>
      <path id="Path_69" data-name="Path 69" d="M139.587,258.82c.018-.185.032-.338.041-.459s.018-.273.027-.461.016-.394.023-.621.011-.49.015-.791c.171,0,.307.006.409.006s.228,0,.4-.006c-.023.289-.039.541-.049.76s-.016.447-.019.692c0,.431-.007.726-.007.88-.157,0-.291,0-.4,0S139.769,258.818,139.587,258.82Zm.124-2.623c.008-.181.013-.324.013-.429q0-.048,0-.123l.4,0q.222,0,.39,0c0,.046-.007.085-.008.117l-.012.283c0,.043,0,.094,0,.152-.13,0-.255-.006-.374-.006S139.855,256.193,139.711,256.2Z"/>
      <path id="Path_70" data-name="Path 70" d="M141.016,259.1a2.435,2.435,0,0,0,.447.141,1.591,1.591,0,0,0,.336.041.648.648,0,0,0,.189-.027.442.442,0,0,0,.136-.065.358.358,0,0,0,.088-.1.528.528,0,0,0,.056-.133,1.059,1.059,0,0,0,.028-.17c0-.065.01-.152.014-.264-.052.053-.1.1-.133.127a.755.755,0,0,1-.14.092.671.671,0,0,1-.18.068.765.765,0,0,1-.206.026.79.79,0,0,1-.451-.135.815.815,0,0,1-.3-.377,1.39,1.39,0,0,1-.1-.523,1.6,1.6,0,0,1,.106-.6,1.207,1.207,0,0,1,.3-.453,1.093,1.093,0,0,1,.433-.256,1.884,1.884,0,0,1,.537-.07,3.8,3.8,0,0,1,.387.023q.219.024.6.1l-.047.753-.04.829c0,.058,0,.107,0,.144l-.016.742a1.52,1.52,0,0,1-.029.27.818.818,0,0,1-.073.219.722.722,0,0,1-.126.176.651.651,0,0,1-.186.128,1.09,1.09,0,0,1-.246.082,1.516,1.516,0,0,1-.32.034c-.063,0-.141,0-.232-.012s-.187-.016-.284-.029-.179-.03-.25-.045-.159-.038-.266-.065l-.014-.3C141.034,259.424,141.027,259.3,141.016,259.1Zm1.35-1.974a.9.9,0,0,0-.218-.027.568.568,0,0,0-.3.078.5.5,0,0,0-.2.236.785.785,0,0,0-.071.326.683.683,0,0,0,.037.229.339.339,0,0,0,.123.166.311.311,0,0,0,.184.06.331.331,0,0,0,.251-.119.657.657,0,0,0,.151-.324A3.707,3.707,0,0,0,142.366,257.129Z"/>
      <path id="Path_71" data-name="Path 71" d="M143.5,258.82q.031-.339.046-.558c.018-.307.037-.662.057-1.067.012-.269.021-.525.027-.773s.009-.487.009-.719c.167,0,.3,0,.407,0,.141,0,.275,0,.4,0l-.041.553c-.006.092-.016.277-.03.554a1.5,1.5,0,0,1,.1-.142.745.745,0,0,1,.092-.086.61.61,0,0,1,.1-.068.667.667,0,0,1,.12-.047.864.864,0,0,1,.149-.033,1.166,1.166,0,0,1,.168-.012,1.2,1.2,0,0,1,.324.045.589.589,0,0,1,.416.392,1.021,1.021,0,0,1,.04.295c0,.041,0,.1,0,.162s-.006.155-.012.258l-.044.77c-.005.1-.008.176-.009.238s0,.143,0,.238c-.137,0-.267,0-.392,0s-.283,0-.427,0c.022-.2.042-.435.058-.7s.026-.461.026-.59a.458.458,0,0,0-.078-.3.269.269,0,0,0-.206-.085.372.372,0,0,0-.2.054.418.418,0,0,0-.138.149.775.775,0,0,0-.085.244,4.49,4.49,0,0,0-.061.572c-.008.141-.015.36-.023.658-.132,0-.256,0-.372,0S143.67,258.818,143.5,258.82Z"/>
      <path id="Path_72" data-name="Path 72" d="M147.727,258.148c-.023.129-.043.254-.061.375l-.043.28a2.887,2.887,0,0,1-.305.064,1.933,1.933,0,0,1-.211.014,1.254,1.254,0,0,1-.3-.033.472.472,0,0,1-.217-.121.459.459,0,0,1-.118-.2.9.9,0,0,1-.032-.242c0-.013,0-.041,0-.08s.006-.125.014-.26l.043-.791H146.2c.007-.1.013-.242.018-.414l.006-.213h.326c.008-.07.017-.222.029-.458l.338-.081c.062-.013.192-.049.394-.1q-.014.3-.02.644h.449q-.015.475-.015.627h-.453l-.024.573c0,.084,0,.14,0,.164a.674.674,0,0,0,.022.183.175.175,0,0,0,.072.1.22.22,0,0,0,.115.033.861.861,0,0,0,.1-.008A1.591,1.591,0,0,0,147.727,258.148Z"/>
      <path id="Path_73" data-name="Path 73" d="M149.016,258.82c.028-.345.048-.625.059-.834q.024-.465.047-1.2c.012-.377.019-.648.019-.81V255.7c.153,0,.286.008.4.008s.248,0,.423-.012.339-.009.492-.009a2.446,2.446,0,0,1,.463.037.978.978,0,0,1,.659.449,1.452,1.452,0,0,1,.178.433,2.094,2.094,0,0,1,.06.51,2.577,2.577,0,0,1-.046.5,2.128,2.128,0,0,1-.132.432,1.446,1.446,0,0,1-.2.33,1.229,1.229,0,0,1-.258.236,1.093,1.093,0,0,1-.219.114,1.4,1.4,0,0,1-.3.066,3.52,3.52,0,0,1-.482.027l-.8-.005C149.3,258.815,149.184,258.816,149.016,258.82Zm.851-.687a2.044,2.044,0,0,0,.226.012,1.385,1.385,0,0,0,.358-.042.539.539,0,0,0,.276-.175.828.828,0,0,0,.177-.346,1.657,1.657,0,0,0,.057-.434,1.1,1.1,0,0,0-.085-.457.508.508,0,0,0-.225-.259.834.834,0,0,0-.383-.073c-.1,0-.207,0-.335.014Z"/>
      <path id="Path_74" data-name="Path 74" d="M154.057,258.131c-.018.092-.05.312-.1.662a3.358,3.358,0,0,1-.384.07,2.735,2.735,0,0,1-.315.018,2.293,2.293,0,0,1-.431-.039.884.884,0,0,1-.34-.133.874.874,0,0,1-.239-.238,1.11,1.11,0,0,1-.147-.34,1.589,1.589,0,0,1-.05-.4,1.677,1.677,0,0,1,.1-.572,1.179,1.179,0,0,1,.259-.437.907.907,0,0,1,.365-.223,1.36,1.36,0,0,1,.424-.066,1.472,1.472,0,0,1,.428.06.786.786,0,0,1,.346.211.907.907,0,0,1,.2.34,1.359,1.359,0,0,1,.059.41,1.831,1.831,0,0,1-.025.289l-1.38,0c0,.026,0,.047,0,.067a.423.423,0,0,0,.151.361.59.59,0,0,0,.371.117,1.349,1.349,0,0,0,.295-.037A3.286,3.286,0,0,0,154.057,258.131Zm-1.211-.738h.649c0-.026,0-.047,0-.067a.522.522,0,0,0-.036-.2.267.267,0,0,0-.1-.123.307.307,0,0,0-.152-.039.294.294,0,0,0-.114.023.307.307,0,0,0-.1.063.377.377,0,0,0-.074.1.5.5,0,0,0-.043.105A1.2,1.2,0,0,0,152.846,257.393Z"/>
      <path id="Path_75" data-name="Path 75" d="M156.172,258.092c-.007.06-.023.174-.048.336l-.051.365a2.191,2.191,0,0,1-.6.088,1.275,1.275,0,0,1-.376-.051.809.809,0,0,1-.343-.211.9.9,0,0,1-.227-.367,1.737,1.737,0,0,1-.085-.557,1.822,1.822,0,0,1,.083-.547,1.094,1.094,0,0,1,.245-.431.8.8,0,0,1,.358-.229,1.521,1.521,0,0,1,.435-.058,2.247,2.247,0,0,1,.282.017,2.359,2.359,0,0,1,.35.075l0,.052c0,.055.007.11.009.168s.006.147.013.27l.011.2a1.344,1.344,0,0,0-.5-.113.536.536,0,0,0-.272.068.418.418,0,0,0-.174.2.779.779,0,0,0-.056.3.766.766,0,0,0,.05.3.343.343,0,0,0,.16.177.486.486,0,0,0,.244.061,1.026,1.026,0,0,0,.158-.016c.06-.011.114-.023.159-.035A1.368,1.368,0,0,0,156.172,258.092Z"/>
      <path id="Path_76" data-name="Path 76" d="M156.521,258.82c.019-.185.033-.338.041-.459s.019-.273.028-.461.015-.394.022-.621.012-.49.016-.791c.171,0,.307.006.409.006s.228,0,.4-.006c-.022.289-.039.541-.048.76s-.016.447-.019.692c-.006.431-.008.726-.008.88-.156,0-.291,0-.4,0S156.7,258.818,156.521,258.82Zm.124-2.623c.008-.181.013-.324.013-.429q0-.048,0-.123l.4,0c.148,0,.278,0,.389,0,0,.046-.007.085-.008.117l-.011.283c0,.043,0,.094,0,.152-.13,0-.255-.006-.374-.006S156.79,256.193,156.645,256.2Z"/>
      <path id="Path_77" data-name="Path 77" d="M157.776,258.777c-.005-.066-.009-.136-.015-.211s-.014-.175-.026-.3l-.015-.164c.127.056.236.1.328.129a.9.9,0,0,0,.253.041.484.484,0,0,0,.156-.02.171.171,0,0,0,.088-.06.14.14,0,0,0,.027-.081.144.144,0,0,0-.02-.07.442.442,0,0,0-.094-.1c-.107-.092-.2-.174-.283-.25a1.371,1.371,0,0,1-.185-.2.717.717,0,0,1-.1-.187.708.708,0,0,1,.062-.563.541.541,0,0,1,.275-.238,1.194,1.194,0,0,1,.445-.074,3.821,3.821,0,0,1,.7.082l.031.638a1.11,1.11,0,0,0-.459-.109.532.532,0,0,0-.225.037.123.123,0,0,0-.07.115.126.126,0,0,0,.008.047.165.165,0,0,0,.028.049c.014.016.032.033.051.051s.07.058.15.121.14.117.184.158a1.056,1.056,0,0,1,.169.186.733.733,0,0,1,.088.183.661.661,0,0,1,.031.2.642.642,0,0,1-.068.3.589.589,0,0,1-.205.229.938.938,0,0,1-.3.127,1.558,1.558,0,0,1-.329.035,2.133,2.133,0,0,1-.286-.024A3.412,3.412,0,0,1,157.776,258.777Z"/>
      <path id="Path_78" data-name="Path 78" d="M159.728,258.82c.019-.185.033-.338.041-.459s.019-.273.028-.461.015-.394.022-.621.012-.49.016-.791c.171,0,.307.006.409.006s.228,0,.4-.006c-.022.289-.039.541-.048.76s-.016.447-.019.692c-.006.431-.008.726-.008.88-.156,0-.291,0-.4,0S159.91,258.818,159.728,258.82Zm.124-2.623c.008-.181.013-.324.013-.429q0-.048,0-.123l.4,0c.148,0,.278,0,.389,0,0,.046-.007.085-.008.117l-.011.283c0,.043,0,.094,0,.152-.13,0-.255-.006-.374-.006S160,256.193,159.852,256.2Z"/>
      <path id="Path_79" data-name="Path 79" d="M162.17,256.43a1.318,1.318,0,0,1,.47.086,1.045,1.045,0,0,1,.381.25,1.027,1.027,0,0,1,.23.382,1.454,1.454,0,0,1,.073.469,1.618,1.618,0,0,1-.065.465,1.207,1.207,0,0,1-.224.414.962.962,0,0,1-.4.289,1.411,1.411,0,0,1-.515.1,1.365,1.365,0,0,1-.48-.086.982.982,0,0,1-.385-.246,1.048,1.048,0,0,1-.233-.389,1.465,1.465,0,0,1-.078-.475,1.494,1.494,0,0,1,.076-.474,1.093,1.093,0,0,1,.241-.406,1.082,1.082,0,0,1,.406-.278A1.357,1.357,0,0,1,162.17,256.43Zm-.014.672a.365.365,0,0,0-.224.074.459.459,0,0,0-.149.221.978.978,0,0,0-.05.316.591.591,0,0,0,.109.385.332.332,0,0,0,.271.134.345.345,0,0,0,.223-.078.46.46,0,0,0,.148-.224.994.994,0,0,0,.05-.323.789.789,0,0,0-.039-.255.367.367,0,0,0-.129-.182A.327.327,0,0,0,162.156,257.1Z"/>
      <path id="Path_80" data-name="Path 80" d="M163.6,258.82q.057-.518.087-1.144c.02-.418.032-.815.036-1.188q.237.006.408.006c.133,0,.261,0,.383-.006l-.02.311c.043-.055.081-.1.112-.133a.752.752,0,0,1,.118-.1.74.74,0,0,1,.148-.076,1.148,1.148,0,0,1,.173-.047,1.019,1.019,0,0,1,.195-.017,1.082,1.082,0,0,1,.278.035.643.643,0,0,1,.224.1.551.551,0,0,1,.153.162.576.576,0,0,1,.08.21,1.321,1.321,0,0,1,.02.23c0,.057-.006.182-.016.373l-.034.828c-.006.162-.01.313-.01.451-.132,0-.256,0-.372,0-.156,0-.3,0-.427,0,.012-.138.024-.343.038-.617s.019-.465.019-.576a.558.558,0,0,0-.086-.359.266.266,0,0,0-.215-.1.323.323,0,0,0-.216.088.558.558,0,0,0-.156.252,2.332,2.332,0,0,0-.079.545c-.014.252-.025.51-.03.771-.132,0-.26,0-.384,0S163.75,258.818,163.6,258.82Z"/>
    </g>
  </g>
</svg>
