<svg xmlns="http://www.w3.org/2000/svg" width="24" height="30" viewBox="0 0 24 30" fill="none"><path d="M12 0.234375C5.66748 0.234375 0.515625 5.38623 0.515625 11.7187C0.515625 14.7949 2.37932 18.7453 6.0549 23.4596C7.73886 25.614 9.56249 27.6553 11.514 29.5706C11.6449 29.6958 11.8189 29.7656 12 29.7656C12.1811 29.7656 12.3551 29.6958 12.486 29.5706C14.4375 27.6553 16.2611 25.614 17.9451 23.4596C21.6207 18.7453 23.4844 14.7949 23.4844 11.7187C23.4844 5.38623 18.3325 0.234375 12 0.234375ZM12 19.9219C7.47656 19.9219 3.79688 16.2422 3.79688 11.7187C3.79688 7.19531 7.47656 3.51562 12 3.51562C16.5234 3.51562 20.2031 7.19531 20.2031 11.7187C20.2031 16.2422 16.5234 19.9219 12 19.9219Z" fill="white"></path><path d="M17.6293 10.7297L12.473 6.04223C12.3436 5.92457 12.1749 5.85938 12 5.85938C11.8251 5.85938 11.6565 5.92457 11.5271 6.04223L6.37082 10.7297C6.25069 10.839 6.17205 10.9864 6.14823 11.147C6.12442 11.3076 6.1569 11.4715 6.24015 11.6109C6.30584 11.717 6.39791 11.8043 6.50737 11.8643C6.61683 11.9243 6.73996 11.9549 6.86476 11.9531H7.54691V16.4062C7.54691 16.5927 7.62099 16.7716 7.75285 16.9034C7.88471 17.0353 8.06356 17.1094 8.25004 17.1094H9.89066C10.0771 17.1094 10.256 17.0353 10.3878 16.9034C10.5197 16.7716 10.5938 16.5927 10.5938 16.4062V13.8281C10.5938 13.6416 10.6679 13.4628 10.7997 13.3309C10.9316 13.1991 11.1104 13.125 11.2969 13.125H12.7032C12.8896 13.125 13.0685 13.1991 13.2003 13.3309C13.3322 13.4628 13.4063 13.6416 13.4063 13.8281V16.4062C13.4063 16.5927 13.4804 16.7716 13.6122 16.9034C13.7441 17.0353 13.9229 17.1094 14.1094 17.1094H15.75C15.9365 17.1094 16.1154 17.0353 16.2472 16.9034C16.3791 16.7716 16.4532 16.5927 16.4532 16.4062V11.9531H17.1353C17.2601 11.9549 17.3832 11.9243 17.4927 11.8643C17.6022 11.8043 17.6942 11.717 17.7599 11.6109C17.8432 11.4715 17.8757 11.3076 17.8518 11.147C17.828 10.9864 17.7494 10.839 17.6293 10.7297Z" fill="white"></path></svg>