<svg xmlns="http://www.w3.org/2000/svg" width="24" height="24" viewBox="0 0 24 24" fill="none"><g clip-path="url(#clip0_86_235)"><path fill-rule="evenodd" clip-rule="evenodd" d="M13.506 -52.3748C13.506 -50.2365 13.506 -45.375 13.506 -45.375C13.506 -44.961 13.8412 -44.625 14.256 -44.625L16.2705 -44.625C16.4077 -44.625 16.5345 -44.55 16.5997 -44.4285C16.6657 -44.3078 16.6597 -44.1607 16.5847 -44.0452C16.548 -43.989 12.3285 -38.8087 12.3202 -38.7952C12.2512 -38.6895 12.1327 -38.625 12.006 -38.625C11.8792 -38.625 11.7607 -38.6895 11.6917 -38.7952C11.6227 -38.901 7.50523 -43.9245 7.42723 -44.0452C7.35223 -44.1607 7.34623 -44.3078 7.41148 -44.4285C7.47748 -44.55 7.60349 -44.625 7.74149 -44.625L9.75598 -44.625C10.17 -44.625 10.506 -44.961 10.506 -45.375C10.506 -45.375 10.506 -50.2388 10.4947 -52.3785C10.4947 -52.8503 10.2675 -53.2973 9.88348 -53.577C9.49873 -53.8575 9.00372 -53.937 8.55147 -53.7922C8.54472 -53.79 8.53799 -53.7877 8.53199 -53.7855C4.44149 -52.35 1.50598 -48.453 1.50598 -43.875C1.50598 -38.0798 6.21073 -33.375 12.006 -33.375C17.8012 -33.375 22.506 -38.0798 22.506 -43.875C22.506 -48.4522 19.5712 -52.3493 15.4852 -53.796C15.4785 -53.799 15.471 -53.8013 15.4642 -53.8035C15.0075 -53.9498 14.5087 -53.8695 14.1217 -53.5868C13.734 -53.304 13.5052 -52.8532 13.506 -52.374L13.506 -52.3748ZM13.506 -7.11449C13.5052 -6.63524 13.734 -6.18449 14.1217 -5.90174C14.5087 -5.61899 15.0075 -5.53874 15.4642 -5.68499C15.471 -5.68724 15.4785 -5.6895 15.4852 -5.6925C19.5712 -7.13925 22.506 -11.0362 22.506 -15.6135C22.506 -21.4087 17.8012 -26.1135 12.006 -26.1135C6.21073 -26.1135 1.50598 -21.4087 1.50598 -15.6135C1.50598 -11.0355 4.44149 -7.1385 8.53199 -5.703C8.53799 -5.70075 8.54473 -5.6985 8.55148 -5.69625C9.00373 -5.5515 9.49873 -5.63099 9.88348 -5.91149C10.2675 -6.19124 10.4947 -6.63824 10.4947 -7.11374C10.506 -9.24974 10.506 -14.1135 10.506 -14.1135C10.506 -14.5275 10.17 -14.8635 9.75598 -14.8635L7.74149 -14.8635C7.60349 -14.8635 7.47748 -14.9385 7.41148 -15.06C7.34623 -15.1807 7.35223 -15.3278 7.42723 -15.4433C7.50523 -15.564 11.6227 -20.5875 11.6917 -20.6933C11.7607 -20.799 11.8792 -20.8635 12.006 -20.8635C12.1327 -20.8635 12.2512 -20.799 12.3202 -20.6933C12.3285 -20.6798 16.548 -15.4995 16.5847 -15.4433C16.6597 -15.3278 16.6657 -15.1807 16.5997 -15.06C16.5345 -14.9385 16.4077 -14.8635 16.2705 -14.8635L14.256 -14.8635C13.8412 -14.8635 13.506 -14.5275 13.506 -14.1135L13.506 -7.11449ZM3.37648 13.5C2.89723 13.4992 2.44648 13.728 2.16373 14.1157C1.88098 14.5028 1.79998 15.0015 1.94698 15.4582C1.94923 15.4657 1.95148 15.4725 1.95373 15.4793C3.40123 19.5653 7.29823 22.5 11.8747 22.5C17.67 22.5 22.3747 17.7952 22.3747 12C22.3747 6.20475 17.67 1.5 11.8747 1.5C7.29748 1.5 3.39974 4.43625 1.96424 8.526C1.96199 8.53275 1.95973 8.53875 1.95823 8.5455C1.81273 8.9985 1.89299 9.4935 2.17274 9.8775C2.45324 10.2615 2.90024 10.4888 3.37574 10.4888C5.51099 10.5 10.3755 10.5 10.3755 10.5C10.7895 10.5 11.1255 10.164 11.1255 9.75L11.1255 7.7355C11.1255 7.59825 11.2005 7.4715 11.3212 7.40625C11.442 7.34025 11.589 7.34625 11.7045 7.42125C11.8252 7.5 16.8487 11.6167 16.9545 11.6857C17.061 11.7547 17.1255 11.8732 17.1255 12C17.1255 12.1268 17.061 12.2453 16.9545 12.3143C16.9417 12.3225 11.7615 16.542 11.7045 16.5787C11.589 16.6537 11.442 16.6598 11.3212 16.5937C11.2005 16.5285 11.1255 16.4018 11.1255 16.2645L11.1255 14.25C11.1255 13.836 10.7895 13.5 10.3755 13.5L3.37648 13.5ZM20.6242 41.25C18.486 41.25 13.6245 41.25 13.6245 41.25C13.2105 41.25 12.8745 41.586 12.8745 42L12.8745 44.0145C12.8745 44.1518 12.7995 44.2785 12.6787 44.3437C12.558 44.4097 12.411 44.4037 12.2955 44.3287C12.2385 44.292 7.05823 40.0725 7.04548 40.0643C6.93898 39.9953 6.87448 39.8767 6.87448 39.75C6.87448 39.6232 6.93898 39.5047 7.04548 39.4357C7.15123 39.3667 12.1747 35.25 12.2955 35.1713C12.411 35.0963 12.558 35.0902 12.6787 35.1562C12.7995 35.2215 12.8745 35.3482 12.8745 35.4855L12.8745 37.5C12.8745 37.914 13.2105 38.25 13.6245 38.25C13.6245 38.25 18.489 38.25 20.628 38.2387C21.0997 38.2387 21.5467 38.0115 21.8272 37.6275C22.107 37.2435 22.1872 36.7485 22.0417 36.2955C22.0402 36.2887 22.038 36.2827 22.0357 36.276C20.6002 32.1862 16.7025 29.25 12.1252 29.25C6.32999 29.25 1.62524 33.9548 1.62524 39.75C1.62524 45.5452 6.32999 50.25 12.1252 50.25C16.7017 50.25 20.5987 47.3153 22.0462 43.2293C22.0485 43.2225 22.0507 43.2157 22.053 43.2082C22.2 42.7515 22.119 42.2527 21.8362 41.8657C21.5535 41.478 21.1035 41.2492 20.6242 41.25Z" fill="white"></path></g><defs><clipPath id="clip0_86_235"><rect width="24" height="24" fill="white" transform="translate(0 24) rotate(-90)"></rect></clipPath></defs></svg>