<svg xmlns="http://www.w3.org/2000/svg" width="37" height="37" viewBox="0 0 37 37" fill="none"><g clip-path="url(#clip0_86_531)"><path d="M2.88757 35.2223C2.88757 35.7972 3.3535 36.2631 3.92838 36.2631H10.1732C11.1739 36.2631 12.0657 35.7893 12.6376 35.0548C15.1746 35.8563 17.808 36.2631 20.4718 36.2631H28.9078C30.6295 36.2631 32.0303 34.8623 32.0303 33.1407C32.0303 32.7344 31.9514 32.3462 31.8096 31.9898C33.1345 31.6288 34.1119 30.4153 34.1119 28.9774C34.1119 28.1784 33.8097 27.4487 33.3142 26.8958C33.8099 26.3429 34.1119 25.6132 34.1119 24.8142C34.1119 24.0151 33.8097 23.2855 33.3142 22.7326C33.8099 22.1796 34.1119 21.45 34.1119 20.6509C34.1119 18.9293 32.7111 17.5285 30.9894 17.5285H25.2924C25.3731 17.3372 25.4566 17.1431 25.5417 16.9458C26.1733 15.4813 26.8262 13.967 26.8262 12.3245C26.8262 9.4476 24.4993 7.05103 21.6222 7.05103C21.1261 7.05103 20.699 7.40121 20.6017 7.88774L20.0702 10.5453C19.3719 14.0358 18.6008 14.431 15.7318 15.9012C14.9734 16.2896 14.0825 16.7463 13.0428 17.3391C12.5641 16.2275 11.4583 15.4469 10.1732 15.4469H3.92838C3.3535 15.4469 2.88757 15.9128 2.88757 16.4877V35.2223ZM16.6807 17.7538C18.2344 16.9577 19.3565 16.3828 20.2352 15.4095C21.1337 14.4139 21.6774 13.123 22.1114 10.9535L22.4515 9.2519C23.7569 9.63408 24.7446 10.8866 24.7446 12.3245C24.7446 13.5371 24.1781 14.8509 23.6301 16.1215C23.4314 16.5826 23.2286 17.0539 23.0481 17.5285H21.6222C21.0473 17.5285 20.5813 17.9944 20.5813 18.5693C20.5813 19.1442 21.0473 19.6101 21.6222 19.6101H30.9894C31.5632 19.6101 32.0303 20.0771 32.0303 20.6509C32.0303 21.2247 31.5632 21.6918 30.9894 21.6918H28.9078C28.3329 21.6918 27.867 22.1577 27.867 22.7326C27.867 23.3074 28.3329 23.7734 28.9078 23.7734H30.9894C31.5632 23.7734 32.0303 24.2404 32.0303 24.8142C32.0303 25.388 31.5632 25.855 30.9894 25.855H28.9078C28.3329 25.855 27.867 26.3209 27.867 26.8958C27.867 27.4707 28.3329 27.9366 28.9078 27.9366H30.9894C31.5632 27.9366 32.0303 28.4036 32.0303 28.9774C32.0303 29.5512 31.5632 30.0182 30.9894 30.0182H28.9078C28.3329 30.0182 27.867 30.4842 27.867 31.059C27.867 31.6339 28.3329 32.0999 28.9078 32.0999C29.4816 32.0999 29.9486 32.5669 29.9486 33.1407C29.9486 33.7145 29.4816 34.1815 28.9078 34.1815H20.4718C18.0322 34.1815 15.6201 33.8107 13.2957 33.08V19.6012C14.6376 18.8011 15.76 18.2256 16.6807 17.7538ZM4.96919 17.5285H10.1732C10.747 17.5285 11.2141 17.9955 11.2141 18.5693V33.1407C11.2141 33.7145 10.747 34.1815 10.1732 34.1815H4.96919V17.5285Z" fill="white"></path><path d="M9.13246 31.0591C9.13246 31.634 8.66654 32.0999 8.09165 32.0999C7.51677 32.0999 7.05084 31.634 7.05084 31.0591C7.05084 30.4842 7.51677 30.0183 8.09165 30.0183C8.66654 30.0183 9.13246 30.4842 9.13246 31.0591Z" fill="white"></path><path d="M21.6222 1.77763V3.92863C21.6222 4.50352 22.0881 4.96944 22.663 4.96944C23.2379 4.96944 23.7038 4.50352 23.7038 3.92863V1.77763C23.7038 1.20274 23.2379 0.736816 22.663 0.736816C22.0881 0.736816 21.6222 1.20274 21.6222 1.77763Z" fill="white"></path><path d="M28.1719 3.49735L26.6999 4.96939C26.2933 5.37596 26.2933 6.03487 26.6999 6.44143C27.1064 6.84773 27.7654 6.84773 28.1719 6.44143L29.6437 4.96939C30.0503 4.56282 30.0503 3.90391 29.6437 3.49735C29.2371 3.09105 28.5782 3.09105 28.1719 3.49735Z" fill="white"></path><path d="M15.6822 3.49735C15.2757 3.90391 15.2757 4.56282 15.6822 4.96939L17.154 6.44143C17.5606 6.84773 18.2195 6.84773 18.6261 6.44143C19.0324 6.03487 19.0324 5.37596 18.6261 4.96939L17.154 3.49735C16.7477 3.09105 16.0885 3.09105 15.6822 3.49735Z" fill="white"></path></g><defs><clipPath id="clip0_86_531"><rect width="35.5263" height="35.5263" fill="white" transform="translate(0.736572 0.736816)"></rect></clipPath></defs></svg>