<svg xmlns="http://www.w3.org/2000/svg" width="37" height="37" viewBox="0 0 37 37" fill="none"><g clip-path="url(#clip0_86_558)"><path d="M36.221 3.38917C36.144 1.97798 35.0217 0.855774 33.6105 0.778754C30.763 0.623187 25.1909 0.774521 19.8628 3.53038C17.1466 4.93533 14.274 7.31733 11.9815 10.0656C11.9533 10.0995 11.9258 10.1336 11.8978 10.1675L6.69509 10.5694C5.83871 10.6356 5.07594 11.0844 4.6023 11.8008L1.05286 17.1694C0.693642 17.7127 0.636536 18.3927 0.9 18.9882C1.16353 19.5838 1.70503 19.9989 2.3486 20.0986L6.73187 20.7775C6.71639 20.8627 6.70085 20.9478 6.68663 21.0331C6.5407 21.9059 6.82991 22.8034 7.46036 23.4338L13.5659 29.5394C14.0886 30.0621 14.7949 30.3503 15.5186 30.3503C15.6676 30.3503 15.8175 30.338 15.9667 30.3131C16.0519 30.2988 16.137 30.2833 16.2222 30.2678L16.9011 34.6512C17.0008 35.2947 17.4159 35.8363 18.0114 36.0998C18.2592 36.2094 18.5214 36.2635 18.7824 36.2635C19.149 36.2634 19.513 36.1567 19.8302 35.947L25.1989 32.3975C25.9153 31.9237 26.3641 31.161 26.4302 30.3047L26.8321 25.1021C26.866 25.074 26.9001 25.0466 26.934 25.0183C29.6824 22.7258 32.0644 19.8532 33.4693 17.137C36.2253 11.8086 36.3764 6.23648 36.221 3.38917ZM24.0509 30.661L18.9154 34.0563L18.2538 29.7845C20.4242 29.1463 22.5713 28.1242 24.6167 26.755L24.3549 30.1442C24.3386 30.3557 24.2277 30.544 24.0509 30.661ZM15.0378 28.0675L8.93221 21.9619C8.77643 21.806 8.70441 21.5871 8.73973 21.3762C8.92124 20.2908 9.2033 19.2576 9.55246 18.2842L18.7135 27.4453C17.5445 27.864 16.4974 28.1138 15.6234 28.26C15.4122 28.2951 15.1936 28.2232 15.0378 28.0675ZM6.85545 12.6448L10.2446 12.383C8.87531 14.4285 7.85324 16.5755 7.21508 18.746L2.94332 18.0844L6.33872 12.9489C6.4557 12.7719 6.64409 12.6611 6.85545 12.6448ZM25.6008 23.4197C23.9193 24.8222 22.2871 25.8367 20.7827 26.5707L10.4286 16.2167C11.3902 14.2527 12.5637 12.6173 13.58 11.399C15.7015 8.85565 18.3401 6.66155 20.8192 5.37927C25.7092 2.8499 30.8613 2.71369 33.4972 2.85718C33.8461 2.87619 34.1236 3.15367 34.1426 3.50262C34.2863 6.13851 34.1498 11.2905 31.6204 16.1806C30.3382 18.6597 28.1441 21.2982 25.6008 23.4197Z" fill="white"></path><path d="M25.0721 17.1292C26.4045 17.129 27.7375 16.6218 28.7518 15.6074C29.7348 14.6246 30.276 13.3177 30.276 11.9278C30.276 10.5378 29.7347 9.23096 28.7518 8.24809C26.7228 6.21899 23.4214 6.21913 21.3925 8.24809C20.4095 9.23096 19.8682 10.5378 19.8682 11.9278C19.8682 13.3177 20.4096 14.6246 21.3925 15.6074C22.407 16.622 23.7393 17.1293 25.0721 17.1292ZM22.8642 9.71993C23.4729 9.1112 24.2725 8.80686 25.072 8.80686C25.8716 8.80686 26.6712 9.1112 27.2798 9.71993C27.8696 10.3097 28.1943 11.0937 28.1943 11.9277C28.1943 12.7617 27.8696 13.5458 27.2798 14.1355C26.0625 15.3529 24.0816 15.3529 22.8642 14.1355C22.2744 13.5458 21.9496 12.7617 21.9496 11.9278C21.9496 11.0938 22.2745 10.3097 22.8642 9.71993Z" fill="white"></path><path d="M1.79824 30.0139C2.06462 30.0139 2.331 29.9124 2.53417 29.7091L5.93227 26.3109C6.33874 25.9045 6.33874 25.2455 5.93227 24.839C5.52587 24.4326 4.86683 24.4326 4.46036 24.839L1.06232 28.2371C0.655851 28.6436 0.655851 29.3026 1.06232 29.7091C1.26549 29.9123 1.53187 30.0139 1.79824 30.0139Z" fill="white"></path><path d="M9.04645 27.9533C8.64005 27.5468 7.98101 27.5468 7.57454 27.9533L1.04144 34.4865C0.63497 34.8929 0.63497 35.5519 1.04144 35.9584C1.24468 36.1616 1.51098 36.2632 1.77736 36.2632C2.04374 36.2632 2.31012 36.1616 2.51329 35.9583L9.04638 29.4252C9.45292 29.0187 9.45292 28.3598 9.04645 27.9533Z" fill="white"></path><path d="M10.6887 31.0673L7.2906 34.4654C6.88413 34.8719 6.88413 35.5309 7.2906 35.9373C7.49384 36.1406 7.76021 36.2422 8.02652 36.2422C8.29283 36.2422 8.55928 36.1406 8.76245 35.9373L12.1606 32.5392C12.567 32.1327 12.567 31.4738 12.1606 31.0673C11.7541 30.6608 11.0951 30.6608 10.6887 31.0673Z" fill="white"></path></g><defs><clipPath id="clip0_86_558"><rect width="35.5263" height="35.5263" fill="white" transform="translate(0.736549 0.736816)"></rect></clipPath></defs></svg>