<svg xmlns="http://www.w3.org/2000/svg" width="37" height="37" viewBox="0 0 37 37" fill="none"><g clip-path="url(#clip0_86_572)"><path d="M33.1404 0.736816C32.6366 0.736816 4.36095 0.736816 3.85897 0.736816C2.1373 0.736816 0.736542 2.13757 0.736542 3.85925V5.44513C0.736542 8.01381 1.62015 10.5332 3.225 12.5389C4.55962 14.2072 6.45801 15.5139 8.57053 16.2181L9.67368 16.5856C10.9549 18.6732 12.9644 20.2813 15.3773 21.0451V22.6632C15.3773 23.237 14.9103 23.704 14.3365 23.704C12.6148 23.704 11.214 25.1048 11.214 26.8265V27.8673H10.1732C9.59833 27.8673 9.13241 28.3332 9.13241 28.9081V34.1815H8.0916C7.51671 34.1815 7.05079 34.6474 7.05079 35.2223C7.05079 35.7972 7.51671 36.2631 8.0916 36.2631H28.9078C29.4827 36.2631 29.9486 35.7972 29.9486 35.2223C29.9486 34.6474 29.4827 34.1815 28.9078 34.1815H27.867V28.9081C27.867 28.3332 27.4011 27.8673 26.8262 27.8673H25.7854V26.8265C25.7854 25.1048 24.3846 23.704 22.6629 23.704C22.0891 23.704 21.6221 23.237 21.6221 22.6632V21.0451C24.0323 20.2821 26.0399 18.677 27.3214 16.5926L28.4847 16.2224C28.489 16.221 28.4936 16.2194 28.498 16.2181C30.5793 15.5242 32.404 14.2519 33.7744 12.5389C35.3792 10.5332 36.2629 8.01381 36.2629 5.44513V3.85925C36.2629 2.13757 34.8621 0.736816 33.1404 0.736816ZM4.85045 11.2384C3.53995 9.60023 2.81816 7.54301 2.81816 5.44513V3.85925C2.81816 3.28545 3.28517 2.81844 3.85897 2.81844H7.16002L8.21926 12.3516C8.28133 12.9091 8.38948 13.4537 8.53747 13.9822C7.08196 13.3705 5.79098 12.4139 4.85045 11.2384ZM11.214 34.1815V29.9489H25.7854V34.1815H11.214ZM20.3479 19.2367C19.8752 19.3454 19.5405 19.766 19.5405 20.2509V22.6632C19.5405 24.3849 20.9413 25.7856 22.6629 25.7856C23.2367 25.7856 23.7037 26.2527 23.7037 26.8265V27.8673H13.2956V26.8265C13.2956 26.2527 13.7627 25.7856 14.3365 25.7856C16.0581 25.7856 17.4589 24.3849 17.4589 22.6632V20.2509C17.4589 19.766 17.1241 19.3454 16.6514 19.2367C13.2306 18.4496 10.6736 15.5903 10.2881 12.1218L9.25438 2.81844H27.745L26.7113 12.1218C26.3258 15.5903 23.7688 18.4496 20.3479 19.2367ZM34.1812 5.44513C34.1812 7.54301 33.4594 9.60023 32.1489 11.2384C31.1664 12.4668 29.8979 13.4171 28.4527 14.0145C28.6056 13.4756 28.7167 12.9205 28.7801 12.3516L29.8394 2.81844H33.1404C33.7142 2.81844 34.1812 3.28545 34.1812 3.85925V5.44513Z" fill="white"></path><path d="M22.809 7.86374L20.4702 7.53199L19.4286 5.47151C19.2516 5.12105 18.8922 4.90015 18.4997 4.90015C18.1072 4.90015 17.7478 5.12105 17.5708 5.47151L16.5292 7.53199L14.1901 7.86374C13.7952 7.91985 13.467 8.19686 13.3453 8.57686C13.2236 8.95687 13.3298 9.37319 13.6187 9.64803L15.2965 11.2448L14.9016 13.4925C14.8333 13.8817 14.991 14.2761 15.309 14.5106C15.6277 14.7453 16.0511 14.7786 16.4018 14.5987L18.4997 13.5218L20.5973 14.5987C20.9489 14.7792 21.3722 14.745 21.6902 14.5106C22.0084 14.2758 22.1661 13.8817 22.0978 13.4925L21.7029 11.2448L23.3804 9.64803C23.6696 9.37292 23.7758 8.95687 23.6541 8.57686C23.5324 8.19686 23.2042 7.91985 22.809 7.86374ZM19.8639 10.1213C19.6113 10.3617 19.4958 10.7121 19.5562 11.0556L19.6852 11.7906L18.9748 11.4261C18.6767 11.2729 18.3227 11.2729 18.0243 11.4261L17.3139 11.7906L17.4432 11.0556C17.5033 10.7121 17.3879 10.3617 17.1355 10.1213L16.6116 9.62282L17.3594 9.51657C17.6963 9.46887 17.9885 9.25935 18.1419 8.95578L18.4997 8.24809L18.8572 8.95551C19.0109 9.25935 19.3031 9.46887 19.64 9.51657L20.3878 9.62255L19.8639 10.1213Z" fill="white"></path></g><defs><clipPath id="clip0_86_572"><rect width="35.5263" height="35.5263" fill="white" transform="translate(0.736542 0.736816)"></rect></clipPath></defs></svg>