<svg xmlns="http://www.w3.org/2000/svg" width="37" height="37" viewBox="0 0 37 37" fill="none"><g clip-path="url(#clip0_86_543)"><path d="M18.4997 20.7981C17.3293 20.7981 16.1853 20.451 15.2122 19.8008C14.2391 19.1506 13.4806 18.2265 13.0328 17.1452C12.5849 16.064 12.4677 14.8742 12.696 13.7263C12.9244 12.5785 13.4879 11.5241 14.3155 10.6965C15.143 9.86898 16.1974 9.3054 17.3453 9.07708C18.4931 8.84876 19.6829 8.96594 20.7642 9.41381C21.8454 9.86168 22.7696 10.6201 23.4198 11.5932C24.07 12.5663 24.417 13.7104 24.417 14.8807C24.4141 16.4492 23.7897 17.9526 22.6806 19.0617C21.5716 20.1708 20.0682 20.7951 18.4997 20.7981ZM18.4997 11.3281C17.797 11.3281 17.1102 11.5365 16.526 11.9268C15.9417 12.3172 15.4864 12.872 15.2175 13.5212C14.9486 14.1704 14.8782 14.8847 15.0153 15.5738C15.1524 16.263 15.4908 16.896 15.9876 17.3928C16.4844 17.8897 17.1175 18.228 17.8066 18.3651C18.4958 18.5022 19.2101 18.4318 19.8592 18.1629C20.5084 17.894 21.0632 17.4387 21.4536 16.8545C21.844 16.2702 22.0523 15.5834 22.0523 14.8807C22.0523 13.9385 21.678 13.0349 21.0118 12.3686C20.3455 11.7024 19.4419 11.3281 18.4997 11.3281Z" fill="white"></path><path d="M30.3455 21.986C29.4079 21.986 28.4914 21.7079 27.7118 21.187C26.9322 20.6661 26.3246 19.9258 25.9658 19.0596C25.607 18.1933 25.5131 17.2402 25.696 16.3206C25.879 15.401 26.3304 14.5563 26.9934 13.8934C27.6564 13.2304 28.5011 12.7789 29.4207 12.596C30.3402 12.4131 31.2934 12.5069 32.1596 12.8657C33.0258 13.2245 33.7662 13.8321 34.2871 14.6117C34.808 15.3913 35.086 16.3078 35.086 17.2454C35.086 18.5027 34.5866 19.7085 33.6976 20.5975C32.8085 21.4865 31.6028 21.986 30.3455 21.986ZM30.3455 14.8807C29.8778 14.8807 29.4206 15.0194 29.0317 15.2792C28.6429 15.5391 28.3398 15.9084 28.1608 16.3405C27.9818 16.7726 27.935 17.2481 28.0262 17.7068C28.1175 18.1655 28.3427 18.5868 28.6734 18.9175C29.0041 19.2482 29.4255 19.4735 29.8842 19.5647C30.3429 19.656 30.8183 19.6091 31.2504 19.4301C31.6825 19.2512 32.0518 18.9481 32.3117 18.5592C32.5715 18.1703 32.7102 17.7131 32.7102 17.2454C32.7073 16.6192 32.4572 16.0194 32.0144 15.5765C31.5715 15.1337 30.9718 14.8836 30.3455 14.8807Z" fill="white"></path><path d="M6.65391 21.986C5.71631 21.986 4.79978 21.7079 4.0202 21.187C3.24062 20.6661 2.63302 19.9258 2.27422 19.0596C1.91541 18.1933 1.82154 17.2402 2.00445 16.3206C2.18737 15.401 2.63886 14.5563 3.30184 13.8934C3.96481 13.2304 4.8095 12.7789 5.72907 12.596C6.64865 12.4131 7.60181 12.5069 8.46803 12.8657C9.33425 13.2245 10.0746 13.8321 10.5955 14.6117C11.1164 15.3913 11.3944 16.3078 11.3944 17.2454C11.3944 18.5027 10.895 19.7085 10.006 20.5975C9.11695 21.4865 7.91118 21.986 6.65391 21.986ZM6.65391 14.8807C6.18621 14.8807 5.72901 15.0194 5.34014 15.2792C4.95126 15.5391 4.64817 15.9084 4.46919 16.3405C4.29021 16.7726 4.24338 17.2481 4.33462 17.7068C4.42587 18.1655 4.65108 18.5868 4.9818 18.9175C5.31251 19.2482 5.73386 19.4735 6.19257 19.5647C6.65128 19.656 7.12675 19.6091 7.55885 19.4301C7.99094 19.2512 8.36026 18.9481 8.6201 18.5592C8.87994 18.1703 9.01863 17.7131 9.01863 17.2454C9.01571 16.6192 8.76563 16.0194 8.32279 15.5765C7.87995 15.1337 7.28017 14.8836 6.65391 14.8807Z" fill="white"></path><path d="M25.605 30.0571C25.3048 30.0549 25.0167 29.9392 24.7984 29.7333C24.58 29.5273 24.4478 29.2464 24.4282 28.9469C24.3287 27.93 23.854 26.9867 23.0965 26.3011C22.339 25.6155 21.3532 25.2367 20.3315 25.2388H16.6679C15.6462 25.2367 14.6604 25.6155 13.9029 26.3011C13.1454 26.9867 12.6707 27.93 12.5712 28.9469C12.5144 29.2369 12.3514 29.4954 12.1142 29.6717C11.877 29.848 11.5826 29.9296 11.2884 29.9005C10.9943 29.8713 10.7216 29.7336 10.5236 29.5141C10.3256 29.2947 10.2165 29.0093 10.2176 28.7138C10.3879 27.1239 11.1417 25.6537 12.3331 24.5874C13.5245 23.5211 15.069 22.9344 16.6679 22.9407H20.3315C21.9408 22.936 23.4939 23.532 24.6869 24.6121C25.8799 25.6922 26.6269 27.1785 26.7818 28.7804C26.797 28.9391 26.7801 29.0993 26.732 29.2513C26.684 29.4034 26.6059 29.5442 26.5023 29.6654C26.3987 29.7866 26.2717 29.8857 26.129 29.9568C25.9863 30.0279 25.8307 30.0696 25.6716 30.0793L25.605 30.0571Z" fill="white"></path><path d="M35.075 29.2578C34.7748 29.2556 34.4867 29.1399 34.2683 28.934C34.05 28.728 33.9178 28.4471 33.8981 28.1476C33.8426 27.5666 33.5711 27.0276 33.1374 26.637C32.7037 26.2464 32.1393 26.0328 31.5556 26.0382H29.1132C28.8802 26.0392 28.6485 26.0729 28.4249 26.1381C28.27 26.2248 28.0977 26.2758 27.9206 26.2872C27.7435 26.2985 27.5661 26.2701 27.4015 26.2039C27.2368 26.1378 27.089 26.0355 26.9691 25.9048C26.8491 25.774 26.7599 25.618 26.7082 25.4482C26.6564 25.2785 26.6433 25.0993 26.6699 24.9238C26.6965 24.7484 26.762 24.5811 26.8617 24.4343C26.9614 24.2875 27.0928 24.1649 27.2461 24.0755C27.3994 23.9861 27.5708 23.9322 27.7477 23.9177C28.191 23.7865 28.6508 23.7192 29.1132 23.7179H31.5556C32.728 23.7096 33.8611 24.1402 34.7322 24.9249C35.6033 25.7097 36.1493 26.7919 36.2629 27.9588C36.2781 28.1176 36.2612 28.2777 36.2131 28.4298C36.1651 28.5818 36.087 28.7227 35.9834 28.8439C35.8798 28.9651 35.7528 29.0642 35.6101 29.1353C35.4674 29.2064 35.3118 29.2481 35.1527 29.2578H35.075Z" fill="white"></path><path d="M1.92446 29.2577H1.84675C1.68759 29.248 1.53201 29.2064 1.38929 29.1352C1.24658 29.0641 1.11963 28.965 1.01603 28.8438C0.912433 28.7226 0.834297 28.5818 0.78628 28.4297C0.738264 28.2777 0.72135 28.1175 0.736548 27.9588C0.849989 26.7938 1.39441 25.7131 2.26311 24.9286C3.13182 24.1441 4.26218 23.7123 5.43268 23.7178H7.87512C8.33748 23.7192 8.79729 23.7865 9.24066 23.9177C9.41754 23.9321 9.58893 23.986 9.74224 24.0754C9.89556 24.1648 10.0269 24.2874 10.1266 24.4342C10.2263 24.581 10.2919 24.7483 10.3184 24.9238C10.345 25.0992 10.3319 25.2784 10.2801 25.4482C10.2284 25.6179 10.1392 25.7739 10.0192 25.9047C9.89928 26.0355 9.75153 26.1377 9.58686 26.2039C9.42219 26.27 9.24478 26.2985 9.06768 26.2871C8.89058 26.2757 8.71828 26.2248 8.56344 26.1381C8.33978 26.0728 8.10809 26.0392 7.87512 26.0381H5.43268C4.84906 26.0327 4.28463 26.2464 3.85091 26.6369C3.41719 27.0275 3.14573 27.5665 3.09017 28.1475C3.0707 28.4451 2.94 28.7245 2.72404 28.9302C2.50808 29.1358 2.22265 29.2528 1.92446 29.2577Z" fill="white"></path></g><defs><clipPath id="clip0_86_543"><rect width="35.5263" height="35.5263" fill="white" transform="translate(0.736542 0.736816)"></rect></clipPath></defs></svg>