<svg xmlns="http://www.w3.org/2000/svg" width="30" height="30" viewBox="0 0 30 30" fill="none"><g clip-path="url(#clip0_86_316)"><path d="M28.3333 27.1431C27.5458 27.1431 26.9048 27.7841 26.9048 28.5716C26.9048 29.3592 27.5458 30.0002 28.3333 30.0002C29.1209 30.0002 29.7619 29.3592 29.7619 28.5716C29.7619 27.7841 29.1209 27.1431 28.3333 27.1431ZM28.3333 29.0478C28.071 29.0478 27.8571 28.8344 27.8571 28.5716C27.8571 28.3089 28.071 28.0954 28.3333 28.0954C28.5956 28.0954 28.8095 28.3089 28.8095 28.5716C28.8095 28.8344 28.5956 29.0478 28.3333 29.0478Z" fill="#F4B52C"></path><path d="M3.09524 1.42857C3.09524 0.641044 2.4542 0 1.66667 0C0.879142 0 0.238098 0.641044 0.238098 1.42857C0.238098 2.2161 0.879142 2.85714 1.66667 2.85714C2.4542 2.85714 3.09524 2.2161 3.09524 1.42857ZM1.19048 1.42857C1.19048 1.16629 1.40439 0.952381 1.66667 0.952381C1.92895 0.952381 2.14286 1.16629 2.14286 1.42857C2.14286 1.69085 1.92895 1.90476 1.66667 1.90476C1.40439 1.90476 1.19048 1.69085 1.19048 1.42857Z" fill="#F4B52C"></path><path d="M25.8196 18.8708L24.8791 16.99C25.0786 16.5852 25.2495 16.1762 25.3899 15.769L27.381 15.1052V9.65646L25.3899 8.99263C25.25 8.5855 25.0786 8.1765 24.8791 7.77169L25.8205 5.88902L21.968 2.03648L20.0853 2.97793C19.6805 2.77844 19.2715 2.60707 18.8644 2.4671L18.2006 0.476074H12.7518L12.088 2.4671C11.6809 2.60707 11.2719 2.77844 10.8671 2.97793L8.98438 2.03648L5.13184 5.88902L6.07329 7.77169C5.87379 8.1765 5.70243 8.5855 5.56246 8.99263L3.57143 9.65646V15.1047L5.56246 15.7683C5.7015 16.1727 5.87054 16.578 6.06818 16.9795L5.45573 18.0951H2.61905V27.6189H5.95238V26.1904H9.56473L10.9933 27.6189H13.5714V28.0951C13.5714 29.1456 14.4257 29.9999 15.4762 29.9999C16.5267 29.9999 17.381 29.1456 17.381 28.0951V27.6189H20.7148C21.5023 27.6189 22.1433 26.9779 22.1433 26.1904C22.1433 25.8232 22.0001 25.4914 21.772 25.238C22.0006 24.9845 22.1433 24.6527 22.1433 24.2856C22.1433 23.9185 22.0001 23.5867 21.772 23.3332C21.9538 23.1314 22.078 22.8793 22.1215 22.5985L25.8196 18.8708ZM7.02916 16.7684C6.76711 16.2652 6.55343 15.7537 6.3937 15.2489L6.32045 15.0176L4.52381 14.4184V10.3428L6.32045 9.74412L6.39323 9.5123C6.55227 9.00798 6.76618 8.49644 7.02846 7.99328L7.14053 7.77751L6.29046 6.07713L9.17202 3.19557L10.8724 4.04564L11.0882 3.9338C11.5918 3.67129 12.1029 3.45761 12.6072 3.29834L12.839 3.22556L13.4387 1.42846H17.5142L18.1129 3.2251L18.3447 3.29787C18.8491 3.45692 19.3606 3.67083 19.8637 3.93311L20.0795 4.04518L21.7799 3.1951L24.6615 6.07666L23.8114 7.77704L23.9232 7.99282C24.1857 8.49644 24.3994 9.00751 24.5587 9.51184L24.6315 9.74365L26.4286 10.3433V14.4188L24.6319 15.0176L24.5587 15.2489C24.399 15.7537 24.1853 16.2652 23.9232 16.7684L23.8114 16.9842L24.6624 18.6857L21.8485 21.5212C21.8243 21.4894 21.7985 21.458 21.772 21.4285C22.0006 21.175 22.1433 20.8432 22.1433 20.4761C22.1433 19.7332 21.5713 19.1284 20.8461 19.0608C22.8662 17.4418 24.0476 15.0122 24.0476 12.3808C24.0476 7.65474 20.2023 3.80941 15.4762 3.80941C10.7501 3.80941 6.90476 7.65474 6.90476 12.3808C6.90476 14.9804 8.08664 17.4257 10.0928 19.0475H6.01958L7.14658 16.9942L7.02916 16.7684ZM21.1909 24.2856C21.1909 24.5483 20.977 24.7618 20.7148 24.7618H16.9048C16.6425 24.7618 16.4286 24.5483 16.4286 24.2856C16.4286 24.0229 16.6425 23.8094 16.9048 23.8094H20.7148C20.977 23.8094 21.1909 24.0229 21.1909 24.2856ZM14.3266 12.3808H16.6257L17.381 11.6256V9.52369C17.9062 9.52369 18.3333 9.95082 18.3333 10.4761V12.6599L16.7076 14.2856H14.2448L12.6191 12.6599V10.4761C12.6191 9.95082 13.0462 9.52369 13.5714 9.52369V11.6256L14.3266 12.3808ZM14.5238 15.238H16.4286V17.1427H14.5238V15.238ZM17.381 14.959L19.2857 13.0542V10.4761C19.2857 9.42557 18.4315 8.57131 17.381 8.57131H16.4286V11.2313L16.2314 11.4285H14.721L14.5238 11.2313V8.57131H13.5714C12.5209 8.57131 11.6667 9.42557 11.6667 10.4761V13.0542L13.5714 14.959V17.1427H12.4219L12.3919 17.1727C10.7661 16.1236 9.76191 14.3251 9.76191 12.3808C9.76191 9.2298 12.3252 6.66655 15.4762 6.66655C18.6272 6.66655 21.1905 9.2298 21.1905 12.3808C21.1905 14.3109 20.2262 16.0785 18.6124 17.1427H17.381V14.959ZM22.1429 12.3808C22.1429 8.70454 19.1525 5.71417 15.4762 5.71417C11.7999 5.71417 8.80953 8.70454 8.80953 12.3808C8.80953 14.5804 9.90374 16.6284 11.6985 17.8661L11.0128 18.5518C9.0353 17.1195 7.85714 14.8271 7.85714 12.3808C7.85714 8.17999 11.2753 4.76179 15.4762 4.76179C19.677 4.76179 23.0952 8.17999 23.0952 12.3808C23.0952 14.7341 22.0315 16.9056 20.2153 18.3451C20.1609 18.0075 19.9886 17.7122 19.741 17.4976C21.2586 16.2376 22.1429 14.3823 22.1429 12.3808ZM20.7148 19.9999C20.977 19.9999 21.1909 20.2133 21.1909 20.4761C21.1909 20.7388 20.977 20.9523 20.7148 20.9523H16.9048C16.6425 20.9523 16.4286 20.7388 16.4286 20.4761C16.4286 20.2133 16.6425 19.9999 16.9048 19.9999H20.7148ZM16.9048 22.857C16.6425 22.857 16.4286 22.6436 16.4286 22.3808C16.4286 22.1181 16.6425 21.9046 16.9048 21.9046H20.7148C20.977 21.9046 21.1909 22.1181 21.1909 22.3808C21.1909 22.6436 20.977 22.857 20.7148 22.857H16.9048ZM5 26.6666H3.57143V19.0475H5V26.6666ZM11.3877 26.6666L9.95908 25.238H5.95238V19.9999H10.9115L12.8162 18.0951H18.8095C19.0718 18.0951 19.2857 18.3086 19.2857 18.5713C19.2857 18.8341 19.0718 19.0475 18.8095 19.0475H13.8504L11.8062 21.0918L12.4795 21.7651L13.5714 20.6732V26.6666H11.3877ZM15.4762 29.0475C14.9509 29.0475 14.5238 28.6204 14.5238 28.0951V19.9999H15.5639C15.5104 20.1494 15.4762 20.3084 15.4762 20.4761C15.4762 20.8432 15.6194 21.175 15.8475 21.4285C15.619 21.6819 15.4762 22.0137 15.4762 22.3808C15.4762 22.748 15.6194 23.0798 15.8475 23.3332C15.619 23.5867 15.4762 23.9185 15.4762 24.2856C15.4762 24.6527 15.6194 24.9845 15.8475 25.238C15.619 25.4914 15.4762 25.8232 15.4762 26.1904C15.4762 26.8102 15.8757 27.3341 16.4286 27.5313V28.0951C16.4286 28.6204 16.0014 29.0475 15.4762 29.0475ZM20.7148 26.6666H16.9048C16.6425 26.6666 16.4286 26.4531 16.4286 26.1904C16.4286 25.9276 16.6425 25.7142 16.9048 25.7142H20.7148C20.977 25.7142 21.1909 25.9276 21.1909 26.1904C21.1909 26.4531 20.977 26.6666 20.7148 26.6666Z" fill="#F4B52C"></path><path d="M1.19049 4.28564H2.14287V5.23803H1.19049V4.28564Z" fill="#F4B52C"></path><path d="M1.19049 6.6665H2.14287V7.61888H1.19049V6.6665Z" fill="#F4B52C"></path><path d="M1.19049 9.04785H2.14287V10.0002H1.19049V9.04785Z" fill="#F4B52C"></path><path d="M27.8571 20H28.8095V20.9524H27.8571V20Z" fill="#F4B52C"></path><path d="M27.8571 22.3809H28.8095V23.3332H27.8571V22.3809Z" fill="#F4B52C"></path><path d="M27.8571 24.7617H28.8095V25.7141H27.8571V24.7617Z" fill="#F4B52C"></path></g><defs><clipPath id="clip0_86_316"><rect width="30" height="30" fill="white"></rect></clipPath></defs></svg>