<svg xmlns="http://www.w3.org/2000/svg" width="30" height="30" viewBox="0 0 30 30" fill="none"><g clip-path="url(#clip0_86_302)"><path d="M8.99984 16.4999H10.9997C11.2758 16.4999 11.4997 16.2761 11.4997 15.9999C11.4997 15.7238 11.2758 15.5 10.9997 15.5H8.99984C8.72373 15.5 8.49985 15.7238 8.49985 15.9999C8.49985 16.276 8.72368 16.4999 8.99984 16.4999Z" fill="#F4B52C"></path><path d="M10.4997 16.9995H9.49977C9.22367 16.9995 8.99979 17.2233 8.99979 17.4995C8.99979 17.7756 9.22362 17.9994 9.49977 17.9994H10.4997C10.7758 17.9994 10.9997 17.7756 10.9997 17.4995C10.9997 17.2233 10.7758 16.9995 10.4997 16.9995Z" fill="#F4B52C"></path><path d="M6.99997 12C6.99997 12.2761 7.2238 12.5 7.49996 12.5C7.77611 12.5 7.99994 12.2761 7.99994 12C8.27605 12 8.49993 11.7761 8.49993 11.5C8.49993 11.2238 8.2761 11 7.99994 11H7.00002C6.72391 11 6.50003 11.2238 6.50003 11.5C6.50003 11.7761 6.72382 12 6.99997 12Z" fill="#F4B52C"></path><path d="M11.9996 12C11.9996 12.2761 12.2235 12.5 12.4996 12.5C12.7757 12.5 12.9995 12.2761 12.9995 12C13.2757 12 13.4995 11.7761 13.4995 11.5C13.4995 11.2238 13.2757 11 12.9995 11H11.9996C11.7235 11 11.4996 11.2238 11.4996 11.5C11.4996 11.7761 11.7235 12 11.9996 12Z" fill="#F4B52C"></path><path d="M9.49977 14.4999H10.4997C10.7758 14.4999 10.9997 14.2761 10.9997 13.9999C10.9997 13.7238 10.7759 13.5 10.4997 13.5H9.49977C9.22367 13.5 8.99979 13.7238 8.99979 13.9999C8.99979 14.276 9.22367 14.4999 9.49977 14.4999Z" fill="#F4B52C"></path><path d="M22.7153 10.7002C22.4639 10.2663 22.0004 9.99925 21.4989 9.99925C20.9974 9.99925 20.5339 10.2664 20.2825 10.7002L17.9992 14.6164V11.5056C17.9972 10.961 17.8164 10.4321 17.4847 10.0002H17.9992C18.5514 10.0002 18.9991 9.55257 18.9991 9.00031V8.00038C18.9991 7.44813 18.5514 7.00046 17.9992 7.00046H16.9992V6.50047C16.9939 4.25309 15.7353 2.19638 13.7365 1.16886C13.7177 1.15692 13.6982 1.14626 13.678 1.13688C13.0414 0.818972 12.3528 0.618286 11.6451 0.544448C11.3633 0.201712 10.9434 0.00250663 10.4997 0.000976562H9.49977C9.0561 0.00245728 8.63617 0.201712 8.35434 0.544448C7.64666 0.618335 6.95808 0.819022 6.32147 1.13688C6.30128 1.14626 6.28174 1.15697 6.26298 1.16886C4.26426 2.19643 3.00566 4.25309 3.00028 6.50052V7.00051H2.00035C1.4481 7.00051 1.00043 7.44818 1.00043 8.00043V9.00036C1.00043 9.55262 1.4481 10.0003 2.00035 10.0003H2.5148C2.18302 10.4322 2.00228 10.9611 2.00035 11.5057V17.4998C2.00198 18.8797 3.12027 19.9979 4.50014 19.9995H6.96745C6.89011 20.1978 6.79579 20.389 6.68548 20.571C5.92804 20.7985 2.97224 21.7519 1.63585 23.1543C0.310463 24.5397 0.0424538 27.39 0.000500207 28.9664C-0.00784115 29.2392 0.0952165 29.5036 0.285982 29.6988C0.473489 29.8917 0.73143 30 1.00043 29.9988H18.9991C19.2683 30.0001 19.5264 29.8918 19.714 29.6988C19.9047 29.5034 20.0077 29.2388 19.999 28.9659C19.9823 27.6217 19.7773 26.2865 19.39 24.9992H28.5843C29.0893 25.0013 29.5559 24.7303 29.8043 24.2907C30.0665 23.8426 30.0652 23.2876 29.8008 22.8408L22.7153 10.7002ZM4.50014 11.0002C4.77625 11.0002 5.00013 10.7763 5.00013 10.5002V10.0002H14.9994V10.5002C14.9994 10.7763 15.2232 11.0002 15.4994 11.0002C15.7755 11.0002 15.9993 10.7763 15.9993 10.5002V10.0922C16.6875 10.3346 17.1006 11.038 16.9769 11.7572C16.8533 12.4763 16.229 13.0013 15.4993 13C15.2842 13.0001 15.0933 13.1379 15.0253 13.342L14.2879 15.5538C14.1152 16.0824 13.8432 16.5731 13.4864 16.9997C12.7995 17.8151 11.0996 18.9996 9.99971 18.9996C8.89979 18.9996 7.19993 17.8151 6.51297 16.9997C6.15671 16.5731 5.88525 16.0823 5.71304 15.5538L4.97412 13.3425C4.9063 13.1382 4.71539 13.0002 4.50014 13C3.7705 13.0013 3.14618 12.4762 3.02254 11.7572C2.8989 11.038 3.31192 10.3346 4.00015 10.0922V10.5002C4.0002 10.7763 4.22404 11.0002 4.50014 11.0002ZM8.18687 19.4946C8.74609 19.7956 9.36542 19.9681 9.99976 19.9995C10.6339 19.9685 11.253 19.7963 11.8121 19.4956C11.9438 20.0196 12.1412 20.5249 12.3996 20.9995C11.7981 21.6871 10.9115 22.0565 9.99971 21.9994C9.08799 22.0565 8.20138 21.687 7.59987 20.9995C7.85796 20.5247 8.05519 20.0192 8.18682 19.4951L8.18687 19.4946ZM9.99976 22.9993C10.8909 23.0249 11.7669 22.7647 12.4996 22.2568V23.9992H7.49992V22.2568C8.23263 22.7647 9.10857 23.0249 9.99976 22.9993ZM6.49999 23.9992H5.50007V22.0409C5.87953 21.8909 6.22453 21.7719 6.49999 21.6804V23.9992ZM5.00013 24.9991H14.9994C15.2755 24.9991 15.4994 25.223 15.4994 25.4991V28.9988L4.50019 28.9934V25.4991C4.50014 25.223 4.72398 24.9991 5.00013 24.9991ZM14.4994 23.9992H13.4995V21.6799C13.7749 21.7714 14.1199 21.8928 14.4994 22.0403V23.9992ZM13.312 20.5705C13.2007 20.389 13.106 20.1979 13.029 19.9995H14.8549L14.3259 20.9069C13.877 20.7455 13.515 20.6315 13.312 20.5705ZM15.4993 18.9996H12.7175L12.7105 18.9731C13.2803 18.6005 13.7978 18.1536 14.2494 17.6442C14.6876 17.1208 15.022 16.5188 15.2348 15.8703L15.8673 13.9735C16.279 13.9107 16.6683 13.7453 16.9992 13.4925V17.4997C16.9992 18.3281 16.3277 18.9996 15.4993 18.9996ZM4.0002 6.50052C4.00208 4.92894 4.74283 3.44976 6.00006 2.50684V5.50059C6.00006 5.7767 6.22389 6.00058 6.49999 6.00058C6.7761 6.00058 6.99998 5.77675 6.99998 5.50059V1.92487C7.3211 1.7841 7.65628 1.67798 7.99991 1.60839V5.50059C7.99991 5.7767 8.22374 6.00058 8.4999 6.00058C8.77605 6.00058 8.99988 5.77675 8.99988 5.50059V1.50089C8.99988 1.22479 9.22372 1.00095 9.49987 1.00095H10.4998C10.7759 1.00095 10.9998 1.22479 10.9998 1.50089V5.50059C10.9998 5.7767 11.2236 6.00058 11.4998 6.00058C11.7759 6.00058 11.9998 5.77675 11.9998 5.50059V1.60839C12.3434 1.67798 12.6786 1.7841 12.9997 1.92487V5.50059C12.9997 5.7767 13.2235 6.00058 13.4997 6.00058C13.7758 6.00058 13.9996 5.77675 13.9996 5.50059V2.50679C15.2568 3.44971 15.9976 4.92894 15.9995 6.50047V7.00046H4.0002V6.50052ZM2.00035 8.00038H17.9992V9.00031H2.00035V8.00038ZM4.50014 18.9996C3.67178 18.9996 3.00023 18.3281 3.00023 17.4997V13.4925C3.33077 13.7451 3.71946 13.9105 4.13065 13.9735L4.76312 15.8703C4.97639 16.519 5.31133 17.121 5.75006 17.6442C6.20207 18.1534 6.71993 18.6002 7.28995 18.9726L7.28147 18.9996H4.50014ZM1.00043 28.9924C1.06494 26.5556 1.5594 24.6792 2.35681 23.8427C2.98552 23.2621 3.71087 22.7957 4.50014 22.4648V24.0912C3.90302 24.3023 3.50283 24.8658 3.50022 25.4991V28.9934L1.00043 28.9924ZM16.4993 28.9988V25.4991C16.4966 24.8658 16.0964 24.3024 15.4993 24.0912V22.4638C16.2889 22.7959 17.0144 23.2632 17.6432 23.8448C18.4401 24.6792 18.9345 26.5556 18.999 28.9989L16.4993 28.9988ZM28.9383 23.7912C28.867 23.9198 28.7314 23.9994 28.5843 23.9992H18.964C18.8026 23.6921 18.6008 23.4079 18.3641 23.1543C17.461 22.336 16.4104 21.6971 15.2683 21.2719L16.0493 19.9335C17.1876 19.6768 17.9969 18.6666 17.9991 17.4997V16.5997L21.1454 11.2081C21.2176 11.0809 21.3526 11.0023 21.4989 11.0023C21.6451 11.0023 21.7801 11.0809 21.8524 11.2081L28.9369 23.3462C29.0174 23.4835 29.018 23.6535 28.9383 23.7912Z" fill="#F4B52C"></path><path d="M22.7213 20.5837L22.2214 20.9182L22.9748 18.6579C23.0257 18.5052 22.9999 18.3373 22.9056 18.2069C22.8112 18.0765 22.6598 17.9994 22.4989 18L20.499 18.006L21.463 15.6922C21.5368 15.5263 21.515 15.3335 21.4059 15.1883C21.2967 15.0432 21.1175 14.9686 20.9377 14.9935C20.7578 15.0184 20.6056 15.1388 20.54 15.3082L19.5741 17.6275C19.4506 17.9352 19.4876 18.284 19.6729 18.5589C19.8581 18.8337 20.1676 18.9989 20.499 19H21.8049L21.155 20.9498L20.852 20.6468C20.6558 20.4573 20.344 20.46 20.1511 20.6529C19.9583 20.8457 19.9556 21.1576 20.1451 21.3538L21.145 22.3537C21.3135 22.5222 21.5776 22.5484 21.7759 22.4162L23.2758 21.4162C23.4245 21.3171 23.5089 21.1462 23.4974 20.9679C23.4858 20.7896 23.38 20.6311 23.2199 20.5519C23.0597 20.4728 22.8695 20.4851 22.7209 20.5843L22.7213 20.5837Z" fill="#F4B52C"></path></g><defs><clipPath id="clip0_86_302"><rect width="30" height="30" fill="white"></rect></clipPath></defs></svg>