<svg xmlns="http://www.w3.org/2000/svg" width="52" height="52" viewBox="0 0 52 52" fill="none"><g clip-path="url(#clip0_210_53)"><path d="M51.9964 45.1352L51.9615 44.336C51.9436 43.9276 51.5958 43.6117 51.1898 43.6291C50.7816 43.647 50.4651 43.9924 50.483 44.4008L50.5182 45.2064C50.5185 45.2113 50.5187 45.2161 50.519 45.221C50.5286 45.3699 50.4776 45.5118 50.3756 45.6205C50.2743 45.7285 50.1369 45.788 49.9891 45.788H45.6596V32.128L46.7758 32.5224C48.6993 33.2022 50.0266 34.9577 50.1592 36.9964L50.2819 39.8031C50.2997 40.2113 50.6446 40.5286 51.0534 40.5099C51.4618 40.4921 51.7783 40.1466 51.7604 39.7384L51.6374 36.9243C51.6371 36.9194 51.6369 36.9145 51.6366 36.9096C51.4689 34.2753 49.7546 32.0055 47.2689 31.1272L45.2021 30.3967C45.1899 30.3916 45.1786 30.3851 45.1662 30.3808L38.9936 28.1992C38.9926 28.1988 38.9914 28.1984 38.9904 28.1981C38.9675 28.1902 38.9447 28.1835 38.9216 28.1775C38.9099 28.1743 38.8981 28.1723 38.8864 28.1698C38.4779 28.064 38.0353 28.1815 37.7343 28.4831L37.5435 28.6742L35.9147 27.8566L35.9145 26.4289C36.4067 26.0901 36.8702 25.6859 37.2911 25.235C37.2961 25.2296 37.301 25.2243 37.306 25.219C38.3689 24.0743 39.1533 22.6334 39.4202 21.2017C39.4274 21.164 39.4344 21.1261 39.4408 21.0883C39.4474 21.0491 39.4536 21.01 39.4593 20.9709C39.4691 20.9055 39.4776 20.8402 39.4851 20.775C39.487 20.7593 39.4893 20.7436 39.4909 20.728C39.4984 20.6571 39.5048 20.5863 39.5096 20.5158H39.8167C40.7706 20.5158 41.5467 19.7398 41.5467 18.7859V16.8469C41.5467 16.7552 41.5386 16.6643 41.5243 16.5746C41.6334 16.3764 41.6962 16.1487 41.6962 15.9061V15.0793C41.6962 14.4508 41.2784 13.9193 40.7095 13.755V13.6383C40.7095 13.5677 40.7086 13.4972 40.7068 13.4271C40.6568 11.4539 39.8819 9.5846 38.5254 8.16384C37.2878 6.8678 35.669 6.04737 33.9256 5.82343C33.899 5.77569 33.8701 5.72958 33.8402 5.68429C33.8325 5.67271 33.8243 5.66154 33.8164 5.65006C33.7862 5.60619 33.7543 5.56363 33.721 5.5224C33.7151 5.51519 33.7095 5.50777 33.7036 5.50066C33.6624 5.451 33.6191 5.40326 33.5736 5.35766C33.5721 5.35614 33.5704 5.35472 33.5688 5.35309C33.5245 5.30901 33.4782 5.26717 33.4303 5.22715C33.4249 5.22268 33.4196 5.21811 33.4142 5.21365C33.3155 5.1328 33.2096 5.0612 33.0978 4.99915C33.0877 4.99356 33.0778 4.98797 33.0676 4.98249C33.012 4.95283 32.9555 4.925 32.8973 4.90032C32.8943 4.89911 32.8912 4.89809 32.8881 4.89677C32.8344 4.87422 32.7794 4.85452 32.7236 4.83644C32.7085 4.83146 32.6932 4.82669 32.678 4.82212C32.6188 4.80445 32.5591 4.7883 32.498 4.77571C32.4946 4.775 32.4911 4.77459 32.4877 4.77398C32.4293 4.7622 32.37 4.75367 32.31 4.74676C32.2936 4.74483 32.2771 4.74321 32.2606 4.74168C32.1968 4.73589 32.1326 4.73193 32.0676 4.73193H31.3692C31.3042 4.73193 31.24 4.73589 31.1762 4.74168C31.1595 4.74321 31.1431 4.74493 31.1266 4.74676C31.0669 4.75357 31.0077 4.7622 30.9494 4.77388C30.9459 4.77459 30.9423 4.775 30.9387 4.77571C30.8778 4.7883 30.818 4.80435 30.7589 4.82202C30.7435 4.82659 30.7283 4.83146 30.7131 4.83644C30.6574 4.85452 30.6025 4.87422 30.5487 4.89667C30.5457 4.89799 30.5424 4.899 30.5394 4.90032C30.4812 4.925 30.4247 4.95283 30.3692 4.98239C30.3589 4.98787 30.3488 4.99356 30.3386 4.99915C30.2844 5.02921 30.2312 5.0611 30.1798 5.09573C30.1797 5.09583 30.1795 5.09593 30.1794 5.09604C30.1251 5.1326 30.073 5.17211 30.0223 5.21354C30.0169 5.21801 30.0115 5.22268 30.0061 5.22726C29.9583 5.26717 29.912 5.30891 29.8679 5.35289C29.8662 5.35451 29.8645 5.35604 29.8629 5.35766C29.8175 5.40316 29.7742 5.4509 29.7331 5.50046C29.7271 5.50767 29.7214 5.51508 29.7155 5.5224C29.6822 5.56353 29.6504 5.60608 29.6202 5.64986C29.6122 5.66133 29.604 5.67251 29.5963 5.68419C29.5663 5.72938 29.5375 5.77559 29.5109 5.82333C27.7675 6.04727 26.1486 6.8678 24.9112 8.16364C24.2501 8.85599 23.7285 9.65529 23.3602 10.5207L19.074 6.50542C18.1942 5.68134 16.8178 5.68317 15.9405 6.50979L11.2909 10.8898L11.2901 10.3777C11.2897 10.0842 11.175 9.80844 10.9671 9.60126C10.7597 9.39437 10.4843 9.28052 10.1914 9.28052C10.1909 9.28052 10.1903 9.28052 10.1898 9.28052L6.70416 9.2854C6.09844 9.28631 5.60616 9.7798 5.60687 10.3858L5.61642 16.2353L0.719166 20.8487C0.27422 21.2679 0.0191963 21.8351 0.0010166 22.4461C-0.0171631 23.0571 0.203634 23.6385 0.622682 24.0833C1.04173 24.5282 1.60896 24.7833 2.21996 24.8015C2.24342 24.8022 2.26668 24.8026 2.28994 24.8026C2.87524 24.8026 3.42947 24.5829 3.85725 24.1798L5.51567 22.6174L5.52288 27.8054C5.52349 28.2136 5.85458 28.5442 6.26287 28.5442C6.26317 28.5442 6.26358 28.5442 6.26388 28.5442C6.67257 28.5436 7.00346 28.2119 7.00285 27.8032L6.99361 21.2252L17.5137 11.3148L21.7401 15.2741V15.906C21.7401 15.9488 21.7426 15.9913 21.7465 16.0334C21.7472 16.0412 21.7478 16.0491 21.7487 16.0569C21.7684 16.2418 21.8237 16.4181 21.9115 16.577C21.8975 16.6659 21.8897 16.7559 21.8897 16.8468V18.7858C21.8897 19.7397 22.6657 20.5157 23.6197 20.5157H23.9258C23.9306 20.5888 23.9371 20.6621 23.9448 20.7358C23.947 20.7565 23.9499 20.7773 23.9523 20.798C23.9595 20.8591 23.9674 20.9202 23.9764 20.9816C23.9818 21.0183 23.9875 21.0552 23.9936 21.092C24.0009 21.1357 24.0091 21.1797 24.0173 21.2236C24.0344 21.3145 24.0536 21.4055 24.0748 21.4964C24.0787 21.513 24.0822 21.5297 24.0863 21.5464C24.101 21.6074 24.117 21.6683 24.1335 21.7293C24.1369 21.7415 24.1402 21.7537 24.1437 21.7659C24.2754 22.2412 24.4609 22.7132 24.6916 23.1709C24.6941 23.1758 24.6965 23.1807 24.699 23.1856C24.7913 23.3678 24.8906 23.5474 24.9966 23.7243C25.0106 23.7476 25.0244 23.771 25.0387 23.7942C25.0673 23.8411 25.0963 23.8877 25.1259 23.934C25.1482 23.969 25.171 24.0039 25.1938 24.0386C25.2195 24.0777 25.2449 24.117 25.2712 24.1558C25.3182 24.225 25.3663 24.2934 25.4153 24.3615C25.4362 24.3905 25.4576 24.4191 25.4788 24.4479C25.5153 24.4974 25.5523 24.5465 25.5898 24.5953C25.6104 24.6219 25.6308 24.6485 25.6515 24.6748C25.7026 24.7397 25.7546 24.8041 25.8075 24.8677C25.8151 24.8768 25.8224 24.886 25.83 24.8951C25.8882 24.9644 25.9477 25.0326 26.0081 25.1002C26.0293 25.1241 26.0508 25.1476 26.0723 25.1711C26.1147 25.2177 26.1577 25.264 26.2011 25.3097C26.2252 25.3349 26.2491 25.3603 26.2734 25.3853C26.3256 25.4389 26.3785 25.4919 26.4319 25.5442C26.4704 25.5818 26.5095 25.6187 26.5487 25.6556C26.5815 25.6865 26.6143 25.7174 26.6476 25.7478C26.6879 25.7847 26.7287 25.8208 26.7696 25.8568C26.7913 25.8759 26.8133 25.8948 26.8352 25.9135C27.0565 26.1042 27.2857 26.2816 27.5217 26.4441L27.5215 27.8563L25.8932 28.6741L25.7021 28.4827C25.5191 28.2994 25.2837 28.184 25.0356 28.1453C25.0081 28.141 24.9804 28.1377 24.9525 28.1352C24.9247 28.1329 24.8968 28.1314 24.8687 28.131C24.8408 28.1306 24.8127 28.1311 24.7848 28.1326C24.708 28.1368 24.6313 28.1488 24.5556 28.168C24.5412 28.1711 24.5267 28.1739 24.5123 28.1778C24.4897 28.1837 24.4627 28.1917 24.4428 28.1988L21.6643 29.1808L21.657 23.9174C21.6561 23.2388 21.1037 22.6875 20.4254 22.6875C20.4248 22.6875 20.4243 22.6875 20.4236 22.6875L14.6356 22.6956C14.3066 22.6961 13.9975 22.8246 13.7652 23.0576C13.5329 23.2905 13.4052 23.6 13.4057 23.929L13.4184 32.9865C13.4173 32.9877 13.4163 32.9889 13.4152 32.9901C13.3952 33.0129 13.3762 33.0364 13.3565 33.0595C13.325 33.0964 13.2933 33.133 13.2627 33.1707C13.2434 33.1944 13.225 33.2187 13.2061 33.2427C13.1761 33.2805 13.146 33.3181 13.1169 33.3566C13.0983 33.3811 13.0807 33.4064 13.0624 33.4313C13.034 33.4699 13.0053 33.5083 12.9778 33.5476C12.96 33.5729 12.9433 33.5989 12.9259 33.6244C12.899 33.6639 12.8718 33.7033 12.8457 33.7434C12.8287 33.7695 12.8126 33.7963 12.7961 33.8227C12.7707 33.8631 12.745 33.9033 12.7205 33.9442C12.7046 33.9708 12.6897 33.998 12.674 34.0249C12.65 34.0663 12.6257 34.1075 12.6025 34.1495C12.5873 34.1772 12.573 34.2054 12.5581 34.2335C12.536 34.2752 12.5134 34.3166 12.4921 34.3589C12.4772 34.3884 12.4634 34.4185 12.4488 34.4483C12.4287 34.4896 12.4083 34.5307 12.389 34.5726C12.3749 34.6031 12.3619 34.6342 12.3483 34.6651C12.3299 34.7068 12.3111 34.7483 12.2936 34.7904C12.2804 34.8221 12.2682 34.8544 12.2555 34.8864C12.2388 34.9281 12.2218 34.9697 12.206 35.0118C12.1936 35.0449 12.1823 35.0785 12.1705 35.1118C12.1556 35.1535 12.1403 35.1951 12.1262 35.2371C12.1148 35.2711 12.1045 35.3057 12.0938 35.3399C12.0806 35.3817 12.0669 35.4234 12.0545 35.4656C12.0442 35.5007 12.0351 35.5361 12.0253 35.5713C12.0138 35.6134 12.0017 35.6552 11.9909 35.6976C11.9819 35.7331 11.9739 35.7692 11.9655 35.805C11.9555 35.8475 11.9449 35.8898 11.9356 35.9326C11.9277 35.9694 11.921 36.0065 11.9137 36.0435C11.9054 36.0858 11.8965 36.1278 11.8889 36.1703C11.8821 36.2087 11.8765 36.2473 11.8704 36.2858C11.8638 36.3274 11.8566 36.3688 11.8508 36.4106C11.8453 36.4502 11.841 36.4901 11.8362 36.5298C11.8312 36.571 11.8257 36.6121 11.8214 36.6535C11.8172 36.6938 11.8144 36.7344 11.811 36.775C11.8079 36.8127 11.8039 36.8504 11.8014 36.8883L7.04581 36.8949C7.02916 36.8949 7.01565 36.8814 7.01565 36.8647L7.00945 32.4011C7.00884 31.9927 6.67775 31.6621 6.26947 31.6621C6.26916 31.6621 6.26876 31.6621 6.26845 31.6621C5.85976 31.6627 5.52887 31.9944 5.52948 32.4031L5.53568 36.8669C5.5369 37.6989 6.21412 38.3749 7.04581 38.3749C7.04652 38.3749 7.04723 38.3749 7.04784 38.3749L11.7361 38.3684L11.4401 45.1352C11.4073 45.6856 11.6046 46.2312 11.9818 46.6331C12.3603 47.0366 12.8946 47.2679 13.4475 47.2679H49.9891C50.542 47.2679 51.0762 47.0366 51.4547 46.6331C51.832 46.2312 52.0293 45.6856 51.9964 45.1352ZM40.0667 18.7858C40.0667 18.9236 39.9546 19.0357 39.8167 19.0357H39.5212V17.2827H40.0667V18.7858ZM30.7389 6.70773C30.7396 6.70509 30.7408 6.70266 30.7415 6.70002C30.7687 6.59378 30.8214 6.49953 30.8917 6.42275C30.8934 6.42082 30.8952 6.41889 30.8969 6.41706C30.9191 6.3933 30.9432 6.37136 30.9687 6.35125C30.9716 6.34891 30.9748 6.34668 30.9778 6.34444C31.0294 6.30524 31.0868 6.27396 31.1484 6.25151C31.153 6.24979 31.1576 6.24796 31.1623 6.24644C31.1918 6.23648 31.2223 6.22866 31.2535 6.22298C31.2591 6.22196 31.2648 6.22125 31.2703 6.22044C31.3027 6.21546 31.3355 6.21211 31.3691 6.21211H32.0675C32.101 6.21211 32.1339 6.21546 32.1662 6.22044C32.1718 6.22125 32.1775 6.22196 32.1831 6.22298C32.2142 6.22866 32.2446 6.23638 32.2742 6.24644C32.279 6.24806 32.2836 6.24989 32.2884 6.25162C32.3498 6.27396 32.407 6.30524 32.4585 6.34434C32.4617 6.34668 32.4649 6.34901 32.468 6.35135C32.4934 6.37136 32.5172 6.39319 32.5395 6.41686C32.5414 6.41889 32.5431 6.42092 32.545 6.42295C32.6151 6.49973 32.6677 6.59378 32.695 6.69991C32.6957 6.70255 32.6969 6.70489 32.6976 6.70753C32.7097 6.75689 32.7168 6.80828 32.7168 6.8613V9.35822C32.7168 9.71622 32.4255 10.0075 32.0676 10.0075H31.3692C31.0112 10.0075 30.7199 9.71622 30.7199 9.35822V6.8613C30.7199 6.80828 30.7269 6.75709 30.7389 6.70773ZM9.81075 10.7609L9.81319 12.2817L7.09405 14.8433L7.08745 10.7648L9.81075 10.7609ZM22.8637 12.1691C22.8496 12.245 22.8358 12.321 22.8238 12.3976C22.8171 12.4404 22.8116 12.4833 22.8056 12.5263C22.7958 12.596 22.7859 12.6657 22.778 12.7359C22.7713 12.7947 22.7666 12.8536 22.7612 12.9125C22.7562 12.9679 22.7502 13.0229 22.7464 13.0785C22.7383 13.1946 22.7325 13.3108 22.7295 13.4271C22.7277 13.4973 22.7268 13.5678 22.7268 13.6384V13.755C22.7253 13.7554 22.7239 13.7561 22.7224 13.7565C22.6774 13.7697 22.6338 13.7858 22.5908 13.8034C22.5769 13.8091 22.5632 13.815 22.5495 13.8211C22.5116 13.8381 22.4744 13.8565 22.4385 13.8769C22.4332 13.88 22.4274 13.8821 22.4221 13.8852L18.0181 9.75959C17.7329 9.49258 17.2892 9.49299 17.0048 9.76101L2.84244 23.1027C2.68532 23.2508 2.48108 23.3296 2.26404 23.3224C2.04822 23.3159 1.84793 23.2258 1.69986 23.0687C1.55178 22.9116 1.47378 22.7062 1.48018 22.4904C1.48668 22.2746 1.57676 22.0742 1.73388 21.9262L16.9552 7.58696C17.1105 7.44071 17.3099 7.36749 17.5094 7.36749C17.7082 7.36749 17.907 7.4401 18.0621 7.58544L22.8766 12.0954C22.8717 12.12 22.8683 12.1446 22.8637 12.1691ZM23.6197 19.0358C23.4818 19.0358 23.3697 18.9237 23.3697 18.7859V17.2828H23.9151V19.0358H23.6197ZM23.2202 15.5726V15.1824H23.4669C23.8756 15.1824 24.2069 14.8511 24.2069 14.4424V13.6382C24.2069 13.5802 24.2076 13.5224 24.2091 13.4646C24.2119 13.3519 24.2184 13.239 24.2273 13.1263C24.2295 13.0976 24.2328 13.069 24.2354 13.0403C24.2433 12.9534 24.2526 12.8667 24.264 12.7801C24.2678 12.7518 24.2719 12.7237 24.276 12.6955C24.2894 12.6039 24.3046 12.5126 24.3218 12.4216C24.3257 12.4011 24.3293 12.3807 24.3333 12.3603C24.3555 12.2488 24.3802 12.1377 24.4083 12.0273C24.4084 12.0267 24.4085 12.0261 24.4086 12.0255C24.6791 10.9652 25.216 9.98719 25.9814 9.18556C26.8734 8.25139 28.0084 7.62302 29.2397 7.3685V9.35781C29.2397 10.5319 30.1949 11.487 31.369 11.487H32.0674C33.2415 11.487 34.1966 10.5318 34.1966 9.35781V7.3687C35.4278 7.62322 36.563 8.25159 37.455 9.18576C38.5572 10.34 39.1867 11.8596 39.2274 13.4647C39.2288 13.5224 39.2295 13.5802 39.2295 13.6382V14.4424C39.2295 14.8511 39.5608 15.1824 39.9695 15.1824H40.2163V15.5726H23.2202ZM25.4231 20.6381C25.4218 20.6267 25.4205 20.6153 25.4192 20.6038C25.4125 20.5418 25.4072 20.48 25.4033 20.4185C25.4027 20.4086 25.4018 20.3988 25.4012 20.3889C25.3973 20.3179 25.395 20.2473 25.395 20.1771V17.2828H38.0412V20.1616C38.0412 20.2325 38.039 20.304 38.0349 20.3757C38.0344 20.384 38.0337 20.3922 38.0332 20.4004C38.0292 20.4634 38.0239 20.5267 38.017 20.5901C38.0157 20.6013 38.0145 20.6125 38.0132 20.6237C38.0051 20.6932 37.9955 20.763 37.9839 20.8331C37.9838 20.8335 37.9838 20.8338 37.9837 20.8342C37.7214 22.417 36.5888 24.1066 35.2006 25.1193C35.1907 25.1265 35.1807 25.134 35.1708 25.1411C35.1268 25.1727 35.0823 25.2031 35.0378 25.2334C35.0133 25.2499 34.9892 25.2671 34.9646 25.2832C34.9516 25.2918 34.9385 25.2997 34.9254 25.3081C34.8803 25.3373 34.8351 25.3663 34.7894 25.3942C34.7871 25.3956 34.785 25.3974 34.7827 25.3988C34.3701 25.6497 33.9414 25.8381 33.5112 25.9451L33.4338 25.9644C31.8553 26.357 31.493 26.3561 29.9087 25.9566C29.4825 25.8492 29.0579 25.6616 28.6491 25.4123C28.6482 25.4117 28.6474 25.411 28.6465 25.4105C28.6301 25.4006 28.6142 25.3899 28.5978 25.3797C28.5495 25.3496 28.5012 25.3192 28.4534 25.2874C28.4415 25.2796 28.4298 25.2713 28.4181 25.2633C26.8858 24.2272 25.6228 22.347 25.4231 20.6381ZM28.2478 29.1479C28.7016 28.9757 29.0015 28.5452 29.0015 28.0542L29.0016 27.2227C29.182 27.2889 29.364 27.3455 29.547 27.3917C30.456 27.6208 31.0684 27.7352 31.6818 27.7352C32.2881 27.7352 32.8955 27.6235 33.7912 27.4007L33.8686 27.3814C34.0586 27.3342 34.2475 27.2754 34.4347 27.2066L34.4348 28.0542C34.4348 28.5453 34.7346 28.9759 35.1885 29.148L36.3743 29.7433C36.3601 29.7541 36.3461 29.7656 36.3319 29.7764C36.2993 29.8009 36.2662 29.8245 36.2332 29.8485C36.1709 29.8937 36.1083 29.9381 36.0448 29.9812C36.0094 30.0054 35.9738 30.0292 35.938 30.0527C35.8733 30.0952 35.8079 30.1364 35.7419 30.1768C35.7083 30.1975 35.6749 30.2185 35.6411 30.2386C35.5606 30.2863 35.4789 30.3322 35.3967 30.3769C35.3773 30.3875 35.3583 30.3988 35.3388 30.4091C35.237 30.4634 35.1338 30.515 35.0295 30.5646C35.0016 30.5779 34.9731 30.59 34.945 30.603C34.868 30.6384 34.7905 30.6731 34.7124 30.7059C34.6748 30.7217 34.6368 30.7367 34.599 30.7519C34.5282 30.7802 34.4571 30.8076 34.3855 30.834C34.346 30.8485 34.3064 30.8628 34.2665 30.8766C34.1922 30.9024 34.1173 30.9268 34.0422 30.9503C34.0062 30.9616 33.9704 30.9734 33.9342 30.9842C33.8352 31.0136 33.7355 31.041 33.6351 31.0664C33.623 31.0695 33.6112 31.0731 33.5991 31.0761C33.4861 31.1041 33.3723 31.1292 33.2578 31.1521C33.225 31.1588 33.1919 31.1641 33.1589 31.1703C33.0767 31.1857 32.9944 31.2002 32.9114 31.2129C32.8705 31.2192 32.8294 31.2248 32.7884 31.2304C32.7113 31.2409 32.634 31.2504 32.5564 31.2587C32.5147 31.2632 32.4728 31.2675 32.4309 31.2714C32.3487 31.2788 32.2662 31.2846 32.1834 31.2895C32.1474 31.2916 32.1116 31.2943 32.0754 31.296C31.9567 31.3013 31.8377 31.3046 31.718 31.3046C31.5984 31.3046 31.4794 31.3012 31.3606 31.296C31.3246 31.2943 31.2888 31.2916 31.253 31.2895C31.1701 31.2846 31.0874 31.2788 31.0051 31.2714C30.9632 31.2676 30.9215 31.2632 30.8798 31.2588C30.8021 31.2505 30.7248 31.241 30.6476 31.2305C30.6066 31.2249 30.5656 31.2193 30.5248 31.213C30.4418 31.2003 30.3592 31.1858 30.277 31.1703C30.2441 31.1641 30.2109 31.1588 30.1782 31.1523C30.0637 31.1293 29.9498 31.1042 29.8369 31.0761C29.8251 31.0731 29.8135 31.0696 29.8017 31.0666C29.7011 31.0411 29.6011 31.0136 29.5017 30.9841C29.4658 30.9734 29.4302 30.9616 29.3945 30.9504C29.319 30.9268 29.2439 30.9023 29.1692 30.8764C29.1298 30.8627 29.0905 30.8485 29.0513 30.8342C28.9793 30.8077 28.9077 30.7801 28.8365 30.7516C28.799 30.7366 28.7615 30.7217 28.7244 30.7061C28.6453 30.6729 28.5671 30.6379 28.4892 30.6021C28.4619 30.5896 28.4344 30.5778 28.4074 30.5649C28.3028 30.5152 28.1993 30.4634 28.0969 30.4089C28.0786 30.3992 28.0609 30.3886 28.0427 30.3788C27.9592 30.3335 27.8764 30.2868 27.7947 30.2384C27.7615 30.2187 27.7288 30.1982 27.6958 30.178C27.6291 30.137 27.5628 30.0953 27.4973 30.0522C27.4623 30.0293 27.4275 30.0059 27.3929 29.9824C27.3285 29.9386 27.2648 29.8935 27.2016 29.8476C27.1694 29.8242 27.1371 29.8012 27.1054 29.7773C27.0908 29.7664 27.0767 29.7546 27.0623 29.7437L28.2478 29.1479ZM13.4475 45.7879C13.2996 45.7879 13.1623 45.7284 13.0609 45.6204C12.9589 45.5117 12.9079 45.3698 12.9175 45.2209C12.9178 45.216 12.9181 45.2112 12.9183 45.2063L13.2773 36.9966C13.3565 35.7777 13.8632 34.6601 14.6687 33.813C14.6764 33.8057 14.6845 33.7989 14.692 33.7912C15.1657 33.2988 15.7406 32.904 16.3683 32.6368C16.3814 32.6312 16.3946 32.6257 16.4078 32.6203C16.4912 32.5856 16.5754 32.5526 16.6605 32.5224L17.7768 32.128V45.7879H13.4475ZM18.2345 30.3966L16.1676 31.1272C16.09 31.1546 16.0132 31.1833 15.9372 31.2134C15.913 31.2229 15.8895 31.2335 15.8655 31.2433C15.8467 31.251 15.828 31.2588 15.8094 31.2667C15.7767 31.2804 15.7437 31.2934 15.7114 31.3076C15.6758 31.3233 15.641 31.3402 15.6056 31.3565C15.5672 31.3742 15.5284 31.3912 15.4905 31.4096C15.4548 31.427 15.4198 31.4455 15.3844 31.4633C15.3478 31.4819 15.3106 31.4999 15.2743 31.5192C15.241 31.5369 15.2084 31.5558 15.1754 31.5739C15.138 31.5947 15.1002 31.6148 15.0633 31.6361C15.0308 31.6549 14.9991 31.6749 14.9669 31.6942C14.9434 31.7083 14.9199 31.7222 14.8966 31.7365L14.886 24.1755L20.1776 24.1681L20.1853 29.704L18.2703 30.3807C18.2578 30.385 18.2466 30.3915 18.2345 30.3966ZM19.2568 45.7879V31.6049L24.1521 29.8748L24.7185 32.6548C24.9304 33.6946 25.5671 34.615 26.4652 35.1801L30.9782 38.0198V45.7879H19.2568ZM27.2534 33.9276C26.6957 33.5767 26.3004 33.005 26.1688 32.3593L25.8191 30.6428C25.8467 30.6661 25.8733 30.6909 25.9011 30.7137C27.533 32.0549 29.5669 32.7844 31.7183 32.7844C32.3144 32.7844 32.9011 32.7272 33.4731 32.6177C35.0008 32.3253 36.4202 31.6507 37.6175 30.6428L37.2677 32.3593C37.1363 33.005 36.741 33.5766 36.1832 33.9275L31.7183 36.7369L27.2534 33.9276ZM44.1797 45.7879H32.4582V38.0199L36.9713 35.1802C37.8696 34.615 38.5062 33.6946 38.7178 32.6549L39.2844 29.8748L44.1797 31.6049V45.7879Z" fill="white"></path></g><defs><clipPath id="clip0_210_53"><rect width="52" height="52" fill="white"></rect></clipPath></defs></svg>