<svg xmlns="http://www.w3.org/2000/svg" width="52" height="52" viewBox="0 0 52 52" fill="none"><g clip-path="url(#clip0_210_52)"><path d="M42.6456 6.83861C41.5104 6.533 40.3236 6.68971 39.304 7.27979C37.2024 8.49621 36.4742 11.1991 37.6806 13.3052C38.2656 14.3265 39.2126 15.0571 40.3472 15.3626C40.7266 15.4648 41.1115 15.5153 41.4942 15.5153C42.2568 15.5153 43.0101 15.3145 43.689 14.9216C45.7906 13.7051 46.5188 11.0023 45.3124 8.89616C44.7273 7.87475 43.7801 7.14411 42.6456 6.83861ZM42.9258 13.603C42.2593 13.9885 41.4843 14.091 40.7432 13.8916C40.0027 13.6922 39.3845 13.2151 39.0023 12.548C38.2117 11.1675 38.6892 9.39575 40.0669 8.59828C40.5108 8.34143 41.003 8.21021 41.5013 8.21021C41.7509 8.21021 42.0022 8.24311 42.2494 8.30964C42.9899 8.509 43.6082 8.98614 43.9904 9.65321C44.7811 11.0338 44.3036 12.8056 42.9258 13.603Z" fill="white"></path><path d="M51.405 13.424L49.9885 12.2035C50.1002 11.3636 50.0876 10.5214 49.9512 9.68957L51.2858 8.54435C51.8763 8.03766 52.0245 7.18006 51.638 6.50518L50.4127 4.36617C50.0244 3.68855 49.2083 3.38559 48.4724 3.64589L46.7114 4.26837C46.046 3.75741 45.3141 3.35105 44.5266 3.0553L44.2088 1.3257C44.0679 0.557375 43.3995 0 42.6199 0C42.6198 0 42.6196 0 42.6195 0L40.1584 0.000304688C39.3805 0.000507813 38.7109 0.556664 38.5664 1.32255L38.218 3.16855C37.4512 3.49009 36.7136 3.93463 36.0703 4.46337L34.4206 3.87959C33.6865 3.61999 32.8701 3.92163 32.4795 4.59763L31.2437 6.73684C30.8538 7.41173 30.9985 8.26993 31.5878 8.77754L33.0042 9.99802C32.8927 10.8378 32.9052 11.6801 33.0417 12.512L31.7071 13.6572C31.1166 14.1639 30.9684 15.0215 31.3549 15.6964L32.58 17.8353C32.9682 18.5129 33.7839 18.8161 34.5204 18.5557L36.2814 17.9332C36.9469 18.4442 37.6788 18.8505 38.4662 19.1463L38.784 20.8761C38.9251 21.6442 39.5936 22.2016 40.3733 22.2016L42.8344 22.2013C43.6122 22.2011 44.2817 21.6449 44.4264 20.8789L44.7747 19.0329C45.5412 18.7113 46.2793 18.2668 46.9224 17.7381L48.5724 18.3219C49.3065 18.5817 50.1229 18.2795 50.5132 17.6038L51.7491 15.4645C52.1389 14.7897 51.9941 13.9316 51.405 13.424ZM50.43 14.7025L49.1941 16.8418C49.1708 16.8823 49.1229 16.9006 49.0805 16.8858L47.0126 16.154C46.747 16.06 46.4512 16.1203 46.2437 16.3106C45.5507 16.946 44.7312 17.4416 43.8468 17.76C43.5927 17.8513 43.4062 18.0703 43.3561 18.3355L42.9294 20.5965C42.9205 20.6436 42.8805 20.6778 42.8342 20.6778L40.3733 20.6781C40.3288 20.6781 40.2906 20.6455 40.2823 20.6006L39.8843 18.434C39.8333 18.1567 39.6332 17.9301 39.3644 17.8452C38.4618 17.5604 37.6407 17.1056 36.924 16.4935C36.6868 16.3126 36.4374 16.2663 36.1754 16.3547L34.0126 17.1192C33.9702 17.1343 33.9246 17.1173 33.9021 17.078L32.6769 14.9391C32.6531 14.8977 32.6624 14.8447 32.6992 14.8132L34.3686 13.3806C34.5815 13.1979 34.6767 12.9132 34.6167 12.6392C34.414 11.7158 34.399 10.7727 34.5719 9.83602C34.621 9.56973 34.5251 9.29734 34.3201 9.12072L32.5822 7.62338C32.5468 7.59291 32.5387 7.54061 32.5629 7.49887L33.7987 5.35966C33.822 5.31923 33.8699 5.30085 33.9124 5.31558L35.9803 6.04734C36.2457 6.14118 36.5416 6.08095 36.7493 5.89062C37.442 5.25535 38.2616 4.75932 39.1459 4.44133C39.3999 4.35002 39.5866 4.13105 39.6367 3.86588L40.0635 1.60479C40.0723 1.55766 40.1124 1.52344 40.1587 1.52344H42.6198C42.6642 1.52344 42.7022 1.55594 42.7105 1.60093L43.1086 3.76756C43.1596 4.04483 43.3597 4.27141 43.6285 4.35632C44.5313 4.6413 45.3524 5.096 46.0689 5.70802C46.2757 5.88443 46.5609 5.93745 46.8175 5.84685L48.9803 5.08229C49.0232 5.06726 49.0683 5.08432 49.0908 5.12352L50.316 7.26243C50.3398 7.30387 50.3305 7.35688 50.2937 7.38837L48.6243 8.82101C48.4114 9.00362 48.3162 9.2884 48.3762 9.56231C48.5788 10.4855 48.5939 11.4286 48.4209 12.3655C48.3718 12.6318 48.4676 12.9042 48.6727 13.0808L50.4106 14.5782C50.4459 14.6085 50.454 14.661 50.43 14.7025Z" fill="white"></path><path d="M11.0525 27.4346C11.0521 26.0817 9.92936 24.8858 8.55593 24.892L8.12714 24.8908L8.12399 21.0811C8.12287 19.9242 6.31851 20.197 6.60075 21.2757L6.6037 24.8869C5.87438 24.8849 5.14496 24.883 4.41564 24.8811L4.40477 11.8258C4.40467 11.6909 4.36871 11.5583 4.30067 11.4419L2.48676 8.34011L2.48575 4.24866L8.508 4.2767L8.50901 8.31909L6.69622 11.4352C6.62838 11.5517 6.59273 11.6841 6.59283 11.8188L6.597 16.8409C6.34207 17.9009 8.12155 18.0883 8.12053 17.0201L8.11647 12.0235L9.92916 8.90754C9.9969 8.79115 10.0325 8.65891 10.0325 8.52434L10.0305 0.761516C10.0305 0.368672 9.66774 0 9.26657 0L1.72088 0.0220391C1.30782 0.0231562 0.962105 0.368773 0.961394 0.782031L0.963425 8.54679C0.963425 8.68187 0.999378 8.81451 1.06753 8.9311L2.88153 12.0331L2.8922 24.877L2.46279 24.8759C-0.502934 24.8844 -0.880848 29.4596 2.03562 29.9682L2.01084 45.1534C2.00424 49.8047 8.99082 49.7693 8.99712 45.1713L9.022 29.9415C10.1769 29.7154 11.0529 28.6765 11.0525 27.4346ZM2.48534 2.72523L2.48503 1.54324L8.50718 1.52557L8.50749 2.75326L2.48534 2.72523ZM5.51322 47.2104C4.42782 47.2104 3.53275 46.2193 3.53428 45.1559L3.55906 30.0026L7.49846 29.9911L7.47368 45.1692C7.47216 46.2915 6.59263 47.2073 5.51322 47.2104ZM8.55268 28.4645L2.4636 28.4823C1.23175 28.4823 1.24242 26.4029 2.463 26.3994L8.55614 26.4154C9.77844 26.4154 9.78718 28.4609 8.55268 28.4645Z" fill="white"></path><path d="M48.7673 43.1752L48.7658 39.8073C48.7635 34.2779 46.2665 29.1187 41.9152 25.6527C41.4807 25.3064 40.7474 25.2713 40.2769 25.5745C38.6146 24.4459 36.7933 23.6271 34.8463 23.1346C34.9231 22.7259 34.8403 22.1636 34.4356 21.9532C32.0123 20.6943 29.1193 20.6953 26.6972 21.9565C26.2926 22.1671 26.2104 22.7302 26.2875 23.1389C25.3942 23.3656 24.5273 23.6608 23.69 24.0234L23.7646 15.0548C26.8682 14.2851 28.5073 12.2798 28.5161 9.22371C28.526 5.83863 26.5166 1.94076 23.8421 0.157121C23.1956 -0.104606 22.8008 0.105832 22.6578 0.788636L22.6393 7.11964C22.6115 7.46018 22.4305 7.64766 22.0964 7.68219L18.8838 7.66614C18.5836 7.66462 18.3402 7.40848 18.3411 7.09496L18.3595 0.763855C18.221 0.0814567 17.8282 -0.131723 17.1807 0.124316C14.4949 1.88196 12.462 5.76073 12.4522 9.14662C12.4434 12.2 14.069 14.2203 17.1642 15.0212L17.08 27.6693C14.0654 30.982 12.3803 35.2774 12.3822 39.8226L12.3836 43.1819C9.38002 44.0989 9.96086 48.6971 13.172 48.6971C15.4187 48.6971 17.5198 49.3651 19.481 50.4183C21.4504 51.4531 23.6679 52 25.8941 52H25.8999L35.2585 51.996C37.4867 51.995 39.7059 51.4463 41.676 50.409C43.6354 49.3437 45.7352 48.6834 47.9824 48.6825C51.1498 48.6812 51.8209 44.0672 48.7673 43.1752ZM39.6367 26.983L39.6405 35.9162C39.6407 36.3368 39.9816 36.6776 40.4022 36.6776H40.4025C40.8233 36.6774 41.1641 36.3362 41.1639 35.9156L41.1602 27.0012C45.0267 30.1744 47.2403 34.8277 47.2424 39.808L47.2439 43.0561H41.1671L41.1656 39.9644C41.1654 39.5438 40.8245 39.203 40.4039 39.203C40.4038 39.203 40.4037 39.203 40.4036 39.203C39.9828 39.2032 39.642 39.5444 39.6422 39.9651L39.6435 43.0562H34.8548L34.8471 24.711C36.5641 25.1901 38.1702 25.9521 39.6367 26.983ZM33.323 23.1089L33.3314 43.056H27.8195L27.8111 23.1112C29.5655 22.3411 31.5679 22.3403 33.323 23.1089ZM26.296 43.0561H21.5074L21.5006 26.9906C22.9505 25.9695 24.5809 25.1933 26.2883 24.7151L26.296 43.0561ZM13.9757 9.15109C13.9825 6.80672 15.1676 4.10536 16.8314 2.38957L16.8177 7.09059C16.8144 8.24241 17.7379 9.184 18.8764 9.18968L22.0889 9.20573C23.1994 9.20573 24.1597 8.23195 24.1629 7.1241L24.1766 2.42867C25.8305 4.16163 26.9997 6.87487 26.9928 9.21944C26.9856 11.715 25.6367 13.1775 22.8692 13.6903C22.5105 13.7567 22.2493 14.0681 22.2463 14.4329L22.1601 24.7779C21.7163 25.0254 21.2828 25.2944 20.8591 25.5827C20.3886 25.2799 19.6551 25.3155 19.221 25.6622C19.0138 25.8275 18.8122 25.9979 18.6135 26.1708L18.6917 14.419C18.694 14.0529 18.4356 13.7366 18.0761 13.6665C15.3096 13.1253 13.9684 11.6484 13.9757 9.15109ZM19.9771 27.01L19.9839 43.056H13.907L13.9055 39.8219C13.9036 34.8417 16.1131 30.1865 19.9771 27.01ZM48.9224 46.7603C48.6741 47.0172 48.34 47.1588 47.9817 47.159C45.4909 47.16 43.1439 47.8915 40.9662 49.061C39.2139 49.9837 37.24 50.4719 35.2578 50.4726L25.8993 50.4766C25.8973 50.4766 25.8959 50.4766 25.8941 50.4766C23.9139 50.4765 21.9413 49.9901 20.1896 49.0696C18.0797 47.9413 15.6081 47.0383 13.172 47.1737C11.4652 47.1737 11.4984 44.5802 13.2252 44.5794H20.7459H27.0579H34.0932H40.4053H47.9262C49.0002 44.6435 49.761 45.8923 48.9224 46.7603Z" fill="white"></path></g><defs><clipPath id="clip0_210_52"><rect width="52" height="52" fill="white"></rect></clipPath></defs></svg>