<svg width="62" height="62" viewBox="0 0 62 62" fill="none" xmlns="http://www.w3.org/2000/svg">
<path d="M31 3.63281C37.3145 3.63536 43.4339 5.82081 48.3214 9.81887C53.2089 13.8169 56.564 19.3817 57.8181 25.5704C59.0722 31.7591 58.1483 38.191 55.2028 43.7764C52.2574 49.3618 47.4715 53.7572 41.6562 56.2178C34.9681 59.044 27.4311 59.0976 20.7034 56.3668C13.9758 53.6359 8.60844 48.3444 5.78223 41.6562C2.95601 34.9681 2.90242 27.4311 5.63323 20.7034C8.36405 13.9758 13.6556 8.60844 20.3438 5.78223C23.7149 4.35562 27.3394 3.62454 31 3.63281ZM31 0C13.8798 0 0 13.8798 0 31C0 48.1202 13.8798 62 31 62C48.1202 62 62 48.1202 62 31C62 13.8798 48.1202 0 31 0Z" fill="#FF6600"/>
<path d="M47.8027 30.2734C47.8027 30.7391 47.6177 31.1857 47.2885 31.515C46.9592 31.8443 46.5126 32.0293 46.0469 32.0293C45.5812 32.0293 45.1346 31.8443 44.8053 31.515C44.476 31.1857 44.291 30.7391 44.291 30.2734C44.2872 26.9024 42.9463 23.6706 40.5627 21.2869C38.179 18.9033 34.9472 17.5624 31.5762 17.5586C31.1105 17.5586 30.6639 17.3736 30.3346 17.0443C30.0053 16.715 29.8203 16.2684 29.8203 15.8027C29.8203 15.3371 30.0053 14.8904 30.3346 14.5612C30.6639 14.2319 31.1105 14.0469 31.5762 14.0469C40.525 14.0469 47.8027 21.3246 47.8027 30.2734Z" fill="#FF6600"/>
<path d="M31.4102 22.7184C30.9445 22.7184 30.4979 22.5334 30.1686 22.2041C29.8393 21.8748 29.6543 21.4282 29.6543 20.9625C29.6543 20.4968 29.8393 20.0502 30.1686 19.7209C30.4979 19.3917 30.9445 19.2067 31.4102 19.2067C34.3874 19.2099 37.2418 20.3939 39.3472 22.499C41.4525 24.6042 42.6369 27.4584 42.6404 30.4357C42.6404 30.9014 42.4554 31.348 42.1261 31.6773C41.7968 32.0066 41.3502 32.1915 40.8845 32.1915C40.4188 32.1915 39.9722 32.0066 39.643 31.6773C39.3137 31.348 39.1287 30.9014 39.1287 30.4357C39.1255 28.3897 38.3112 26.4285 36.8644 24.9818C35.4175 23.5352 33.4561 22.7213 31.4102 22.7184Z" fill="#FF6600"/>
<path d="M45.1536 42.6673C44.9442 43.5044 44.5368 44.2789 43.9657 44.9257L42.9812 46.0156C42.6191 46.4168 42.1957 46.7581 41.7267 47.0267C41.5154 47.1548 41.2957 47.2684 41.0691 47.367C40.1638 47.7616 39.1856 47.9612 38.198 47.9531C37.9558 47.9531 37.7136 47.9418 37.4715 47.9192C26.7413 46.9504 17.6278 39.3215 14.7918 28.9074C14.6114 28.2451 14.4661 27.6214 14.3474 27.0039C13.8436 24.4064 14.6998 22.3018 15.7799 21.35C15.8986 21.1804 16.028 21.0186 16.1674 20.8656L17.1495 19.7758C17.2925 19.6208 17.4445 19.4744 17.6048 19.3374C18.3129 18.7282 19.1729 18.3223 20.0933 18.1628C20.3822 18.1104 20.6752 18.0833 20.9688 18.0817C22.2444 18.0814 23.4743 18.5563 24.4188 19.4137L26.079 20.9153C26.9901 21.7391 27.5761 22.862 27.7307 24.0806C27.7464 24.2114 27.7622 24.3434 27.7682 24.4766C27.8043 25.1518 27.706 25.8274 27.479 26.4643C27.252 27.1012 26.9008 27.6868 26.4459 28.1869L25.4614 29.2768C24.9298 29.8657 24.2691 30.3237 23.5311 30.6149C25.5301 34.4213 28.7954 37.4104 32.7633 39.066C32.988 38.5326 33.3017 38.0412 33.6909 37.6129L34.6754 36.523C35.5921 35.5137 36.8714 34.9087 38.2332 34.8407C39.595 34.7726 40.9282 35.2469 41.941 36.1597L43.6024 37.6601C44.2854 38.2796 44.7895 39.071 45.0624 39.9517C45.3352 40.8324 45.3667 41.7703 45.1536 42.6673Z" fill="#FF6600"/>
</svg>
