<svg width="26" height="26" viewBox="0 0 26 26" fill="none" xmlns="http://www.w3.org/2000/svg">
<path d="M2.89258 9.54492C2.1543 9.08203 1.39258 8.64258 0.613281 8.22656L2.89258 6.69141V9.54492Z" fill="white"/>
<path d="M10.8379 18.1621L0.115234 25.3926C0.0742187 25.2871 0.0507812 25.1758 0.0507812 25.0586V9.25C4.30469 11.5176 7.92578 14.5117 10.8379 18.1621Z" fill="white"/>
<path d="M16.7227 2.38379H9.28125L12.5156 0.204102C12.8086 0.00488282 13.1895 0.00488282 13.4883 0.204102L16.7227 2.38379Z" fill="white"/>
<path d="M13.6387 9.91797C13.7735 10.0469 13.8438 10.2227 13.8555 10.4043V10.5625C13.8321 10.7969 13.7266 11.043 13.5333 11.2363C13.334 11.4355 13.0821 11.5527 12.8243 11.5645C12.584 11.5762 12.3672 11.5 12.2149 11.3418C11.8809 11.0078 11.9278 10.416 12.3204 10.0234C12.5372 9.80664 12.8126 9.69531 13.0762 9.69531C13.2872 9.69531 13.4864 9.77148 13.6387 9.91797Z" fill="white"/>
<path d="M21.6406 3.55469H4.35547C4.19727 3.55469 4.0625 3.68359 4.0625 3.84766V10.3105C7.01562 12.3262 9.61133 14.7344 11.8086 17.5059C11.832 17.4883 11.873 17.4648 11.8965 17.4473C12.5703 17.0137 13.4316 17.0137 14.0996 17.4473C14.123 17.459 14.1641 17.4883 14.1875 17.5059C16.3848 14.7344 18.9805 12.3262 21.9336 10.3105V3.84766C21.9336 3.68359 21.7988 3.55469 21.6406 3.55469ZM17.3633 11.3418C17.293 11.7695 17.0762 12.1387 16.7656 12.3965C16.4551 12.6602 16.0566 12.8125 15.623 12.8125C15.0723 12.8125 14.5801 12.5605 14.2578 12.168C13.8711 12.5137 13.3848 12.7129 12.8809 12.7363C12.8457 12.7363 12.8105 12.7363 12.7754 12.7363C12.2422 12.7363 11.7559 12.5371 11.3867 12.168C11.0117 11.793 10.8242 11.2891 10.8242 10.7793C10.8242 10.2168 11.0469 9.63672 11.4922 9.19727C12.1777 8.51172 13.1738 8.34766 13.9531 8.72266C14.0586 8.55859 14.2402 8.45312 14.4453 8.45312C14.7676 8.45312 15.0313 8.7168 15.0313 9.03906V11.0488C15.0313 11.377 15.2949 11.6406 15.623 11.6406C15.9102 11.6406 16.1621 11.4297 16.209 11.1543C16.2324 10.9961 16.25 10.8379 16.25 10.6797C16.2734 8.89844 14.8438 7.42187 13.0625 7.38672C12.1719 7.36914 11.334 7.70898 10.7012 8.33594C10.0684 8.96289 9.73438 9.80078 9.75195 10.6973C9.78125 12.4434 11.2344 13.873 12.9805 13.8848C13.4258 13.8848 13.8535 13.8027 14.2637 13.6328C14.5625 13.5039 14.9082 13.6445 15.0313 13.9434C15.1543 14.2422 15.0195 14.582 14.7207 14.7109C14.1758 14.9395 13.5957 15.0566 12.998 15.0566H12.9746C10.5957 15.0449 8.62109 13.0996 8.58008 10.7207C8.55664 9.50781 9.01367 8.36523 9.875 7.50977C10.7305 6.6543 11.873 6.19141 13.0859 6.21484C15.5059 6.26172 17.4512 8.27148 17.4219 10.6914C17.416 10.9082 17.3984 11.125 17.3633 11.3418Z" fill="white"/>
<path d="M14.0039 18.7949L24.6211 25.9492H1.38281L12.0117 18.7832C12.0117 18.7832 12.5215 18.4434 12.5273 18.4375C12.8145 18.25 13.1895 18.25 13.4766 18.4375C13.4824 18.4434 13.998 18.7891 14.0039 18.7949C13.998 18.7891 13.998 18.7891 14.0039 18.7949Z" fill="white"/>
<path d="M25.3887 8.22461C24.6094 8.64063 23.8477 9.08008 23.1094 9.54297V6.68359L25.3887 8.22461Z" fill="white"/>
<path d="M25.9512 9.25V25.0527C25.9512 25.1699 25.9277 25.2871 25.8867 25.3867L15.1641 18.1621C18.0762 14.5117 21.6973 11.5176 25.9512 9.25Z" fill="white"/>
</svg>
