<svg width="30" height="26" viewBox="0 0 30 26" fill="none" xmlns="http://www.w3.org/2000/svg">
<path d="M15.1658 5.16197C20.2207 5.21157 23.3874 4.89705 23.8151 10.4999H29.9793C29.9793 1.82021 22.4094 0.650269 15.0053 0.650269C7.60054 0.650269 0.03125 1.82021 0.03125 10.4999H6.1476C6.62083 4.79027 10.1528 5.11295 15.1658 5.16197Z" fill="white"/>
<path d="M3.08735 13.2912C4.58872 13.2912 5.83802 13.3811 6.11577 11.9042C6.15311 11.7035 6.1747 11.4759 6.1747 11.2128H6.10352H0C0 13.4097 1.38234 13.2912 3.08735 13.2912Z" fill="white"/>
<path d="M23.8546 11.2128H23.7969C23.7969 11.4777 23.8196 11.7058 23.8622 11.9042C24.1552 13.2661 25.4027 13.1815 26.8988 13.1815C28.612 13.1815 30.0008 13.2941 30.0008 11.2128H23.8546Z" fill="white"/>
<path d="M20.8426 9.71542V8.84249C20.8426 8.45212 20.3927 8.42761 19.8372 8.42761H18.9299C18.375 8.42761 17.9251 8.45212 17.9251 8.84249V9.59463V10.1781H11.5065V9.59463V8.84249C11.5065 8.45212 11.0566 8.42761 10.5017 8.42761H9.59372C9.0388 8.42761 8.58891 8.45212 8.58891 8.84249V9.71542V10.4775C7.12664 11.9969 2.34185 18.4652 2.16797 19.2482L2.1703 24.4736C2.1703 24.9561 2.56301 25.3488 3.04557 25.3488H26.386C26.8685 25.3488 27.2612 24.9561 27.2612 24.4736V19.222C27.0891 18.4616 22.3055 11.9964 20.8426 10.4769V9.71542ZM11.1902 19.9514C10.7205 19.9514 10.3394 19.5709 10.3394 19.1006C10.3394 18.6303 10.7205 18.2498 11.1902 18.2498C11.6599 18.2498 12.041 18.6303 12.041 19.1006C12.041 19.5709 11.6599 19.9514 11.1902 19.9514ZM11.1902 17.0338C10.7205 17.0338 10.3394 16.6534 10.3394 16.183C10.3394 15.7127 10.7205 15.3323 11.1902 15.3323C11.6599 15.3323 12.041 15.7127 12.041 16.183C12.041 16.6534 11.6599 17.0338 11.1902 17.0338ZM11.1902 14.1168C10.7205 14.1168 10.3394 13.7364 10.3394 13.2661C10.3394 12.7964 10.7205 12.4153 11.1902 12.4153C11.6599 12.4153 12.041 12.7964 12.041 13.2661C12.041 13.7364 11.6599 14.1168 11.1902 14.1168ZM14.6913 19.9514C14.2215 19.9514 13.8405 19.5709 13.8405 19.1006C13.8405 18.6303 14.2215 18.2498 14.6913 18.2498C15.1616 18.2498 15.542 18.6303 15.542 19.1006C15.542 19.5709 15.1616 19.9514 14.6913 19.9514ZM14.6913 17.0338C14.2215 17.0338 13.8405 16.6534 13.8405 16.183C13.8405 15.7127 14.2215 15.3323 14.6913 15.3323C15.1616 15.3323 15.542 15.7127 15.542 16.183C15.542 16.6534 15.1616 17.0338 14.6913 17.0338ZM14.6913 14.1168C14.2215 14.1168 13.8405 13.7364 13.8405 13.2661C13.8405 12.7964 14.2215 12.4153 14.6913 12.4153C15.1616 12.4153 15.542 12.7964 15.542 13.2661C15.542 13.7364 15.1616 14.1168 14.6913 14.1168ZM18.1923 19.9514C17.722 19.9514 17.3416 19.5709 17.3416 19.1006C17.3416 18.6303 17.722 18.2498 18.1923 18.2498C18.6626 18.2498 19.0431 18.6303 19.0431 19.1006C19.0431 19.5709 18.6626 19.9514 18.1923 19.9514ZM18.1923 17.0338C17.722 17.0338 17.3416 16.6534 17.3416 16.183C17.3416 15.7127 17.722 15.3323 18.1923 15.3323C18.6626 15.3323 19.0431 15.7127 19.0431 16.183C19.0431 16.6534 18.6626 17.0338 18.1923 17.0338ZM18.1923 14.1168C17.722 14.1168 17.3416 13.7364 17.3416 13.2661C17.3416 12.7964 17.722 12.4153 18.1923 12.4153C18.6626 12.4153 19.0431 12.7964 19.0431 13.2661C19.0431 13.7364 18.6626 14.1168 18.1923 14.1168Z" fill="white"/>
</svg>
